<svg xmlns="http://www.w3.org/2000/svg" viewBox="0 0 188 56" width="188" height="56" role="img"><title>jirkapelikan.cz</title><style>.s{animation:s 2.6s ease-in-out infinite}@keyframes s{50%{transform:translateX(4px)}} @media (prefers-reduced-motion: reduce) { *, *::before, *::after { animation: none !important; } }</style><rect x=".5" y=".5" width="186.0908203125" height="51" rx="2" fill="none" stroke="#343B35"/><g class="t"><path fill="#ECEEE8" d="M24.41 35.24H25.96Q26.61 35.24 27.05 34.85Q27.49 34.46 27.49 33.82V23.04H25.8V33.44Q25.8 33.72 25.73 33.81Q25.65 33.9 25.39 33.9H24.87ZM26.65 21.65Q26.09 21.65 25.72 21.28Q25.35 20.91 25.35 20.36Q25.35 19.8 25.72 19.43Q26.09 19.07 26.65 19.07Q27.2 19.07 27.57 19.43Q27.94 19.8 27.94 20.36Q27.94 20.91 27.57 21.28Q27.2 21.65 26.65 21.65ZM30.09 32H31.78V23.04L30.09 23.62ZM30.94 21.65Q30.38 21.65 30.01 21.28Q29.64 20.91 29.64 20.36Q29.64 19.8 30.01 19.43Q30.38 19.07 30.94 19.07Q31.5 19.07 31.86 19.43Q32.23 19.8 32.23 20.36Q32.23 20.91 31.86 21.28Q31.5 21.65 30.94 21.65ZM34.37 32H36.05V27.71Q36.05 26.64 36.32 25.98Q36.59 25.32 36.99 24.98Q37.39 24.64 37.82 24.52Q38.24 24.4 38.56 24.4Q38.87 24.4 39.18 24.46L39.69 23.01Q39.47 22.91 39.23 22.87Q38.99 22.83 38.75 22.83Q37.9 22.83 37.11 23.31Q36.38 23.76 35.97 24.6V23.04H34.37ZM41.09 32H42.78V28.84L44.14 27.57L47.08 32H49.03L45.32 26.42L48.94 23.04H46.79L42.78 26.9V19.55L41.09 20.14ZM52.91 32.2Q53.63 32.2 54.17 32Q54.71 31.8 55.09 31.48Q55.47 31.15 55.7 30.78Q55.76 30.7 55.8 30.62Q55.81 31.24 56.22 31.61Q56.63 32 57.3 32H57.8L58.27 30.66H57.79Q57.54 30.66 57.46 30.57Q57.38 30.48 57.38 30.21V26.4Q57.38 25.22 57.02 24.43Q56.67 23.63 55.95 23.23Q55.23 22.83 54.12 22.83Q52.99 22.83 52.17 23.18Q51.34 23.54 50.86 24.14Q50.38 24.74 50.29 25.46L52.11 25.84Q52.16 25.04 52.63 24.58Q53.11 24.12 54.01 24.12Q54.95 24.12 55.35 24.66Q55.75 25.2 55.75 26.22V26.55H54.46Q52.93 26.55 51.92 26.95Q50.91 27.34 50.41 28.02Q49.92 28.7 49.92 29.55Q49.92 30.34 50.29 30.94Q50.67 31.54 51.35 31.87Q52.02 32.2 52.91 32.2ZM53.33 30.9Q52.78 30.9 52.42 30.7Q52.06 30.51 51.89 30.19Q51.72 29.87 51.72 29.48Q51.72 29.09 51.97 28.69Q52.21 28.29 52.81 28.02Q53.41 27.74 54.46 27.74H55.76V27.85Q55.76 28.91 55.43 29.58Q55.09 30.26 54.54 30.58Q53.99 30.9 53.33 30.9ZM60.15 35.24 61.81 34.66V31.22Q62.41 31.68 63.14 31.95Q63.87 32.21 64.68 32.21Q65.45 32.21 66.16 31.97Q66.87 31.73 67.45 31.3Q68.04 30.87 68.47 30.29Q68.9 29.7 69.14 29Q69.37 28.3 69.37 27.52Q69.37 26.74 69.14 26.04Q68.9 25.33 68.47 24.75Q68.04 24.16 67.45 23.73Q66.87 23.3 66.16 23.06Q65.45 22.83 64.68 22.83Q63.84 22.83 63.09 23.11Q62.34 23.38 61.74 23.87V23.04H60.15ZM67.55 27.52Q67.55 28.21 67.33 28.82Q67.11 29.43 66.71 29.88Q66.32 30.34 65.8 30.6Q65.28 30.86 64.68 30.86Q64.08 30.86 63.57 30.6Q63.05 30.34 62.65 29.88Q62.26 29.43 62.03 28.82Q61.81 28.21 61.81 27.52Q61.81 26.83 62.03 26.22Q62.26 25.61 62.65 25.15Q63.05 24.7 63.57 24.43Q64.08 24.17 64.68 24.17Q65.28 24.17 65.8 24.43Q66.32 24.7 66.71 25.15Q67.11 25.61 67.33 26.22Q67.55 26.83 67.55 27.52ZM75.48 32.21Q74.19 32.21 73.22 31.63Q72.26 31.05 71.73 30Q71.19 28.95 71.19 27.52Q71.19 26.08 71.72 25.03Q72.25 23.98 73.21 23.4Q74.16 22.83 75.43 22.83Q76.15 22.83 76.88 23.06Q77.61 23.28 78.22 23.85Q78.83 24.41 79.19 25.4Q79.56 26.38 79.56 27.89H72.28V26.69H78.08L77.71 27.19Q77.67 26.09 77.35 25.42Q77.03 24.75 76.52 24.45Q76.01 24.15 75.4 24.15Q74.64 24.15 74.11 24.55Q73.57 24.95 73.29 25.71Q73.01 26.46 73.01 27.53Q73.01 29.11 73.64 29.99Q74.28 30.86 75.47 30.86Q76.32 30.86 76.9 30.44Q77.48 30.01 77.76 29.19L79.37 29.68Q79.04 30.5 78.48 31.06Q77.91 31.63 77.15 31.92Q76.39 32.21 75.48 32.21ZM83.08 32H84.01L84.48 30.66H83.66Q83.4 30.66 83.32 30.57Q83.24 30.48 83.24 30.21V19.55L81.55 20.14V30.58Q81.55 31.22 81.99 31.61Q82.42 32 83.08 32ZM86.25 32H87.93V23.04L86.25 23.62ZM87.09 21.65Q86.54 21.65 86.17 21.28Q85.8 20.91 85.8 20.36Q85.8 19.8 86.17 19.43Q86.54 19.07 87.09 19.07Q87.65 19.07 88.02 19.43Q88.39 19.8 88.39 20.36Q88.39 20.91 88.02 21.28Q87.65 21.65 87.09 21.65ZM90.56 32H92.24V28.84L93.6 27.57L96.54 32H98.49L94.79 26.42L98.4 23.04H96.25L92.24 26.9V19.55L90.56 20.14ZM102.38 32.2Q103.1 32.2 103.64 32Q104.18 31.8 104.55 31.48Q104.93 31.15 105.17 30.78Q105.22 30.7 105.26 30.62Q105.27 31.24 105.68 31.61Q106.09 32 106.77 32H107.27L107.74 30.66H107.26Q107 30.66 106.92 30.57Q106.84 30.48 106.84 30.21V26.4Q106.84 25.22 106.49 24.43Q106.14 23.63 105.41 23.23Q104.69 22.83 103.58 22.83Q102.46 22.83 101.63 23.18Q100.81 23.54 100.33 24.14Q99.84 24.74 99.75 25.46L101.58 25.84Q101.62 25.04 102.1 24.58Q102.58 24.12 103.47 24.12Q104.41 24.12 104.81 24.66Q105.21 25.2 105.21 26.22V26.55H103.93Q102.39 26.55 101.38 26.95Q100.38 27.34 99.88 28.02Q99.38 28.7 99.38 29.55Q99.38 30.34 99.76 30.94Q100.13 31.54 100.81 31.87Q101.49 32.2 102.38 32.2ZM102.8 30.9Q102.24 30.9 101.89 30.7Q101.53 30.51 101.36 30.19Q101.19 29.87 101.19 29.48Q101.19 29.09 101.43 28.69Q101.68 28.29 102.28 28.02Q102.87 27.74 103.92 27.74H105.22V27.85Q105.22 28.91 104.89 29.58Q104.56 30.26 104.01 30.58Q103.46 30.9 102.8 30.9ZM109.59 32H111.27V27.47Q111.27 25.86 111.96 25.02Q112.64 24.18 113.71 24.18Q114.68 24.18 115.09 24.82Q115.51 25.46 115.51 26.53V32H117.19V26.41Q117.19 25.3 116.83 24.5Q116.47 23.71 115.79 23.27Q115.11 22.83 114.13 22.83Q113.03 22.83 112.27 23.37Q111.56 23.86 111.19 24.59V23.04L109.59 23.6ZM120.9 32.21Q120.3 32.21 119.9 31.81Q119.51 31.42 119.51 30.82Q119.51 30.22 119.9 29.83Q120.3 29.44 120.9 29.44Q121.48 29.44 121.88 29.83Q122.27 30.22 122.27 30.82Q122.27 31.42 121.88 31.81Q121.48 32.21 120.9 32.21ZM127.95 32.21Q126.65 32.21 125.69 31.63Q124.74 31.06 124.22 30.01Q123.71 28.95 123.71 27.52Q123.71 26.07 124.22 25.02Q124.74 23.97 125.69 23.4Q126.64 22.83 127.94 22.83Q128.92 22.83 129.71 23.18Q130.5 23.54 131.05 24.22Q131.6 24.89 131.84 25.86L130.18 26.26Q129.95 25.24 129.38 24.71Q128.81 24.17 127.94 24.17Q126.76 24.17 126.15 25.06Q125.53 25.94 125.53 27.53Q125.53 29.11 126.15 29.99Q126.76 30.86 127.94 30.86Q128.81 30.86 129.37 30.35Q129.94 29.84 130.18 28.85L131.82 29.25Q131.63 29.97 131.26 30.52Q130.9 31.07 130.4 31.44Q129.89 31.82 129.27 32.01Q128.66 32.21 127.95 32.21ZM132.99 32H139.93L140.44 30.56H135L140.26 24.39V23.04H133.72L133.21 24.47H138.19L132.99 30.65Z"/><g class="s"><g fill="none" stroke="#ECEEE8" stroke-width="1.6" stroke-linecap="square"><path d="M151.0908203125 32 L162.0908203125 21"/><path d="M154.9408203125 21 H162.0908203125 V28.15"/></g></g></g></svg>
