<svg xmlns="http://www.w3.org/2000/svg" viewBox="0 0 58 28" width="58" height="28" role="img"><title>Redis</title><style> @media (prefers-reduced-motion: reduce) { *, *::before, *::after { animation: none !important; } }</style><rect x=".75" y=".75" width="55.7" height="26.5" rx="2" fill="none" stroke="#C4C8BD" stroke-width="1.2"/><path fill="#0F120F" d="M10.3 18.48V8.99H13.23Q14.08 8.99 14.72 9.33Q15.35 9.68 15.7 10.29Q16.05 10.9 16.05 11.72Q16.05 12.68 15.55 13.37Q15.05 14.06 14.2 14.32L16.18 18.48H14.81L12.99 14.45H11.47V18.48ZM11.47 13.4H13.23Q13.96 13.4 14.4 12.94Q14.85 12.47 14.85 11.72Q14.85 10.95 14.4 10.5Q13.96 10.04 13.23 10.04H11.47ZM20.8 18.61Q19.95 18.61 19.32 18.27Q18.69 17.93 18.35 17.32Q18 16.7 18 15.88V13.93Q18 13.1 18.35 12.49Q18.69 11.88 19.32 11.54Q19.95 11.2 20.8 11.2Q21.64 11.2 22.28 11.54Q22.91 11.88 23.25 12.49Q23.59 13.1 23.59 13.93V15.19H19.15V15.88Q19.15 16.73 19.58 17.17Q20.01 17.62 20.8 17.62Q21.48 17.62 21.89 17.38Q22.31 17.14 22.4 16.66H23.57Q23.45 17.56 22.69 18.08Q21.93 18.61 20.8 18.61ZM22.45 14.41V13.93Q22.45 13.09 22.03 12.63Q21.61 12.18 20.8 12.18Q20.01 12.18 19.58 12.63Q19.15 13.09 19.15 13.93V14.31H22.54ZM28.18 18.61Q29.07 18.61 29.6 18.13Q30.04 17.74 30.12 17.12H30.13V18.48H31.3V8.99L30.13 9.41V11.07L30.16 12.7H30.12Q30.04 12.08 29.6 11.68Q29.07 11.2 28.18 11.2Q27.11 11.2 26.45 11.92Q25.8 12.63 25.8 13.87V15.96Q25.8 17.18 26.46 17.89Q27.12 18.61 28.18 18.61ZM28.57 17.6Q27.83 17.6 27.4 17.15Q26.97 16.71 26.97 15.88V13.93Q26.97 13.1 27.4 12.66Q27.83 12.21 28.57 12.21Q29.3 12.21 29.72 12.67Q30.13 13.12 30.13 13.93V15.88Q30.13 16.69 29.72 17.14Q29.3 17.6 28.57 17.6ZM33.6 18.48H39.34L39.72 17.41H37.31V11.33H34.31L33.93 12.4H36.14V17.41H33.98ZM36.59 10.04Q36.17 10.04 35.92 9.82Q35.67 9.6 35.67 9.22Q35.67 8.83 35.92 8.61Q36.17 8.38 36.59 8.38Q37.02 8.38 37.27 8.61Q37.52 8.83 37.52 9.22Q37.52 9.6 37.27 9.82Q37.02 10.04 36.59 10.04ZM43.98 18.58Q43.25 18.58 42.71 18.36Q42.17 18.13 41.85 17.71Q41.53 17.3 41.47 16.73H42.64Q42.72 17.1 43.06 17.32Q43.41 17.54 43.98 17.54H44.52Q45.21 17.54 45.55 17.26Q45.89 16.98 45.89 16.52Q45.89 16.06 45.58 15.8Q45.28 15.53 44.68 15.44L43.72 15.28Q42.67 15.1 42.15 14.63Q41.64 14.15 41.64 13.24Q41.64 12.28 42.25 11.75Q42.86 11.23 44.08 11.23H44.58Q45.6 11.23 46.23 11.71Q46.85 12.19 46.98 13.01H45.81Q45.73 12.67 45.42 12.47Q45.11 12.27 44.58 12.27H44.08Q43.42 12.27 43.11 12.51Q42.81 12.76 42.81 13.25Q42.81 13.7 43.07 13.9Q43.33 14.11 43.89 14.2L44.85 14.36Q46.01 14.54 46.53 15.04Q47.06 15.53 47.06 16.46Q47.06 17.45 46.43 18.02Q45.8 18.58 44.52 18.58Z"/></svg>
