<svg xmlns="http://www.w3.org/2000/svg" viewBox="0 0 58 28" width="58" height="28" role="img"><title>Rayon</title><style> @media (prefers-reduced-motion: reduce) { *, *::before, *::after { animation: none !important; } }</style><rect x=".75" y=".75" width="55.7" height="26.5" rx="2" fill="none" stroke="#C4C8BD" stroke-width="1.2"/><path fill="#0F120F" d="M10.3 18.48V8.99H13.23Q14.08 8.99 14.72 9.33Q15.35 9.68 15.7 10.29Q16.05 10.9 16.05 11.72Q16.05 12.68 15.55 13.37Q15.05 14.06 14.2 14.32L16.18 18.48H14.81L12.99 14.45H11.47V18.48ZM11.47 13.4H13.23Q13.96 13.4 14.4 12.94Q14.85 12.47 14.85 11.72Q14.85 10.95 14.4 10.5Q13.96 10.04 13.23 10.04H11.47ZM20.18 18.61Q19.04 18.61 18.39 18.03Q17.74 17.45 17.74 16.46Q17.74 15.46 18.39 14.89Q19.04 14.32 20.15 14.32H22.36V13.61Q22.36 12.94 21.96 12.58Q21.57 12.23 20.84 12.23Q20.2 12.23 19.77 12.49Q19.34 12.76 19.28 13.21H18.11Q18.23 12.29 18.98 11.75Q19.73 11.2 20.86 11.2Q22.1 11.2 22.81 11.84Q23.53 12.47 23.53 13.57V18.48H22.39V17.12H22.19L22.39 16.92Q22.39 17.7 21.78 18.16Q21.18 18.61 20.18 18.61ZM20.46 17.69Q21.29 17.69 21.83 17.27Q22.36 16.86 22.36 16.21V15.19H20.18Q19.59 15.19 19.25 15.52Q18.91 15.84 18.91 16.4Q18.91 17 19.32 17.34Q19.73 17.69 20.46 17.69ZM27.01 20.82 28.44 20.31 31.79 11.33H30.52L28.96 15.75Q28.89 15.97 28.81 16.28Q28.73 16.58 28.68 16.79Q28.63 16.58 28.55 16.28Q28.47 15.97 28.38 15.75L26.71 11.33H25.41L28.07 18.04ZM36.4 18.58Q35.54 18.58 34.92 18.26Q34.29 17.93 33.95 17.32Q33.6 16.7 33.6 15.85V13.96Q33.6 13.1 33.95 12.49Q34.29 11.88 34.92 11.55Q35.54 11.23 36.4 11.23Q37.26 11.23 37.88 11.55Q38.51 11.88 38.85 12.49Q39.2 13.1 39.2 13.94V15.85Q39.2 16.7 38.85 17.32Q38.51 17.93 37.88 18.26Q37.26 18.58 36.4 18.58ZM36.4 17.54Q37.17 17.54 37.6 17.12Q38.02 16.69 38.02 15.85V13.96Q38.02 13.12 37.6 12.7Q37.17 12.27 36.4 12.27Q35.65 12.27 35.21 12.7Q34.77 13.12 34.77 13.96V15.85Q34.77 16.69 35.21 17.12Q35.65 17.54 36.4 17.54ZM41.5 18.48H42.67V13.93Q42.67 13.1 43.09 12.66Q43.51 12.21 44.24 12.21Q44.94 12.21 45.35 12.62Q45.76 13.03 45.76 13.8V18.48H46.93V13.67Q46.93 12.53 46.29 11.86Q45.66 11.2 44.58 11.2Q43.68 11.2 43.17 11.66Q42.76 12.05 42.68 12.7H42.67V11.33L41.5 11.73Z"/></svg>
