<svg xmlns="http://www.w3.org/2000/svg" viewBox="0 0 189 56" width="189" height="56" role="img"><title>jirkapelikan.cz</title><style>.s{animation:s 2.6s ease-in-out infinite}@keyframes s{50%{transform:translateX(4px)}} @media (prefers-reduced-motion: reduce) { *, *::before, *::after { animation: none !important; } }</style><rect x=".5" y=".5" width="187.5" height="51" rx="2" fill="#0A0C0B" stroke="#343B35"/><path fill="#ECEEE8" d="M22.51 36.52H24.06Q24.71 36.52 25.15 36.13Q25.59 35.74 25.59 35.1V24.32H23.9V34.72Q23.9 35 23.83 35.09Q23.75 35.18 23.49 35.18H22.97ZM24.75 22.93Q24.19 22.93 23.82 22.56Q23.45 22.19 23.45 21.64Q23.45 21.08 23.82 20.71Q24.19 20.35 24.75 20.35Q25.3 20.35 25.67 20.71Q26.04 21.08 26.04 21.64Q26.04 22.19 25.67 22.56Q25.3 22.93 24.75 22.93ZM28.19 33.28H29.88V24.32L28.19 24.9ZM29.04 22.93Q28.48 22.93 28.11 22.56Q27.74 22.19 27.74 21.64Q27.74 21.08 28.11 20.71Q28.48 20.35 29.04 20.35Q29.6 20.35 29.96 20.71Q30.33 21.08 30.33 21.64Q30.33 22.19 29.96 22.56Q29.6 22.93 29.04 22.93ZM32.47 33.28H34.15V28.99Q34.15 27.92 34.42 27.26Q34.69 26.6 35.09 26.26Q35.49 25.92 35.92 25.8Q36.34 25.68 36.66 25.68Q36.97 25.68 37.28 25.74L37.79 24.29Q37.57 24.19 37.33 24.15Q37.09 24.11 36.85 24.11Q36 24.11 35.21 24.59Q34.48 25.04 34.07 25.88V24.32H32.47ZM39.19 33.28H40.88V30.12L42.24 28.85L45.18 33.28H47.13L43.42 27.7L47.04 24.32H44.89L40.88 28.18V20.83L39.19 21.42ZM51.01 33.48Q51.73 33.48 52.27 33.28Q52.81 33.08 53.19 32.76Q53.57 32.43 53.8 32.06Q53.86 31.98 53.9 31.9Q53.91 32.52 54.32 32.89Q54.73 33.28 55.4 33.28H55.9L56.37 31.94H55.89Q55.64 31.94 55.56 31.85Q55.48 31.76 55.48 31.49V27.68Q55.48 26.5 55.12 25.71Q54.77 24.91 54.05 24.51Q53.33 24.11 52.22 24.11Q51.09 24.11 50.27 24.46Q49.44 24.82 48.96 25.42Q48.48 26.02 48.39 26.74L50.21 27.12Q50.26 26.32 50.73 25.86Q51.21 25.4 52.11 25.4Q53.05 25.4 53.45 25.94Q53.85 26.48 53.85 27.5V27.83H52.56Q51.03 27.83 50.02 28.23Q49.01 28.62 48.51 29.3Q48.02 29.98 48.02 30.83Q48.02 31.62 48.39 32.22Q48.77 32.82 49.45 33.15Q50.12 33.48 51.01 33.48ZM51.43 32.18Q50.88 32.18 50.52 31.98Q50.16 31.79 49.99 31.47Q49.82 31.15 49.82 30.76Q49.82 30.37 50.07 29.97Q50.31 29.57 50.91 29.3Q51.51 29.02 52.56 29.02H53.86V29.13Q53.86 30.19 53.53 30.86Q53.19 31.54 52.64 31.86Q52.09 32.18 51.43 32.18ZM58.25 36.52 59.91 35.94V32.5Q60.51 32.96 61.24 33.23Q61.97 33.49 62.78 33.49Q63.55 33.49 64.26 33.25Q64.97 33.01 65.55 32.58Q66.14 32.15 66.57 31.57Q67 30.98 67.24 30.28Q67.47 29.58 67.47 28.8Q67.47 28.02 67.24 27.32Q67 26.61 66.57 26.03Q66.14 25.44 65.55 25.01Q64.97 24.58 64.26 24.34Q63.55 24.11 62.78 24.11Q61.94 24.11 61.19 24.39Q60.44 24.66 59.84 25.15V24.32H58.25ZM65.65 28.8Q65.65 29.49 65.43 30.1Q65.21 30.71 64.81 31.16Q64.42 31.62 63.9 31.88Q63.38 32.14 62.78 32.14Q62.18 32.14 61.67 31.88Q61.15 31.62 60.75 31.16Q60.36 30.71 60.13 30.1Q59.91 29.49 59.91 28.8Q59.91 28.11 60.13 27.5Q60.36 26.89 60.75 26.43Q61.15 25.98 61.67 25.71Q62.18 25.45 62.78 25.45Q63.38 25.45 63.9 25.71Q64.42 25.98 64.81 26.43Q65.21 26.89 65.43 27.5Q65.65 28.11 65.65 28.8ZM73.58 33.49Q72.29 33.49 71.32 32.91Q70.36 32.33 69.83 31.28Q69.29 30.23 69.29 28.8Q69.29 27.36 69.82 26.31Q70.35 25.26 71.31 24.68Q72.26 24.11 73.53 24.11Q74.25 24.11 74.98 24.34Q75.71 24.56 76.32 25.13Q76.93 25.69 77.29 26.68Q77.66 27.66 77.66 29.17H70.38V27.97H76.18L75.81 28.47Q75.77 27.37 75.45 26.7Q75.13 26.03 74.62 25.73Q74.11 25.43 73.5 25.43Q72.74 25.43 72.21 25.83Q71.67 26.23 71.39 26.99Q71.11 27.74 71.11 28.81Q71.11 30.39 71.74 31.27Q72.38 32.14 73.57 32.14Q74.42 32.14 75 31.72Q75.58 31.29 75.86 30.47L77.47 30.96Q77.14 31.78 76.58 32.34Q76.01 32.91 75.25 33.2Q74.49 33.49 73.58 33.49ZM81.18 33.28H82.11L82.58 31.94H81.76Q81.5 31.94 81.42 31.85Q81.34 31.76 81.34 31.49V20.83L79.65 21.42V31.86Q79.65 32.5 80.09 32.89Q80.52 33.28 81.18 33.28ZM84.35 33.28H86.03V24.32L84.35 24.9ZM85.19 22.93Q84.64 22.93 84.27 22.56Q83.9 22.19 83.9 21.64Q83.9 21.08 84.27 20.71Q84.64 20.35 85.19 20.35Q85.75 20.35 86.12 20.71Q86.49 21.08 86.49 21.64Q86.49 22.19 86.12 22.56Q85.75 22.93 85.19 22.93ZM88.66 33.28H90.34V30.12L91.7 28.85L94.64 33.28H96.59L92.89 27.7L96.5 24.32H94.35L90.34 28.18V20.83L88.66 21.42ZM100.48 33.48Q101.2 33.48 101.74 33.28Q102.28 33.08 102.65 32.76Q103.03 32.43 103.27 32.06Q103.32 31.98 103.36 31.9Q103.37 32.52 103.78 32.89Q104.19 33.28 104.87 33.28H105.37L105.84 31.94H105.36Q105.1 31.94 105.02 31.85Q104.94 31.76 104.94 31.49V27.68Q104.94 26.5 104.59 25.71Q104.24 24.91 103.51 24.51Q102.79 24.11 101.68 24.11Q100.56 24.11 99.73 24.46Q98.91 24.82 98.43 25.42Q97.94 26.02 97.85 26.74L99.68 27.12Q99.72 26.32 100.2 25.86Q100.68 25.4 101.57 25.4Q102.51 25.4 102.91 25.94Q103.31 26.48 103.31 27.5V27.83H102.03Q100.49 27.83 99.48 28.23Q98.48 28.62 97.98 29.3Q97.48 29.98 97.48 30.83Q97.48 31.62 97.86 32.22Q98.23 32.82 98.91 33.15Q99.59 33.48 100.48 33.48ZM100.9 32.18Q100.34 32.18 99.99 31.98Q99.63 31.79 99.46 31.47Q99.29 31.15 99.29 30.76Q99.29 30.37 99.53 29.97Q99.78 29.57 100.38 29.3Q100.97 29.02 102.02 29.02H103.32V29.13Q103.32 30.19 102.99 30.86Q102.66 31.54 102.11 31.86Q101.56 32.18 100.9 32.18ZM107.69 33.28H109.37V28.75Q109.37 27.14 110.06 26.3Q110.74 25.46 111.81 25.46Q112.78 25.46 113.19 26.1Q113.61 26.74 113.61 27.81V33.28H115.29V27.69Q115.29 26.58 114.93 25.78Q114.57 24.99 113.89 24.55Q113.21 24.11 112.23 24.11Q111.13 24.11 110.37 24.65Q109.66 25.14 109.29 25.87V24.32L107.69 24.88ZM119 33.49Q118.4 33.49 118 33.09Q117.61 32.7 117.61 32.1Q117.61 31.5 118 31.11Q118.4 30.72 119 30.72Q119.58 30.72 119.98 31.11Q120.37 31.5 120.37 32.1Q120.37 32.7 119.98 33.09Q119.58 33.49 119 33.49ZM126.05 33.49Q124.75 33.49 123.79 32.91Q122.84 32.34 122.32 31.29Q121.81 30.23 121.81 28.8Q121.81 27.35 122.32 26.3Q122.84 25.25 123.79 24.68Q124.74 24.11 126.04 24.11Q127.02 24.11 127.81 24.46Q128.6 24.82 129.15 25.5Q129.7 26.17 129.94 27.14L128.28 27.54Q128.05 26.52 127.48 25.99Q126.91 25.45 126.04 25.45Q124.86 25.45 124.25 26.34Q123.63 27.22 123.63 28.81Q123.63 30.39 124.25 31.27Q124.86 32.14 126.04 32.14Q126.91 32.14 127.47 31.63Q128.04 31.12 128.28 30.13L129.92 30.53Q129.73 31.25 129.36 31.8Q129 32.35 128.5 32.72Q127.99 33.1 127.37 33.29Q126.76 33.49 126.05 33.49ZM131.09 33.28H138.03L138.54 31.84H133.1L138.36 25.67V24.32H131.82L131.31 25.75H136.29L131.09 31.93Z"/><g class="s"><g fill="none" stroke="#ECEEE8" stroke-width="1.53" stroke-linecap="square"><path d="M149.39082031249998 31.44 L159.93082031249997 20.900000000000002"/><path d="M153.07982031249998 20.900000000000002 H159.93082031249997 V27.751"/></g></g></svg>
