<svg xmlns="http://www.w3.org/2000/svg" viewBox="0 0 1280 612" width="1280" height="612" role="img"><title>Máte projekt nebo volné místo? Napište mi. kontakt@jirkapelikan.cz</title><style>.s{animation:s 2.6s ease-in-out infinite}@keyframes s{50%{transform:translateX(4px)}}.r0{animation:r0 12.35s infinite}@keyframes r0{0%,4.86%{transform:translateX(0);animation-timing-function:steps(14)}8.26%,97.17%{transform:translateX(153.2px)}97.57%,100%{transform:translateX(0)}}.r1{animation:r1 12.35s infinite}@keyframes r1{0%,9.23%{transform:translateX(0);animation-timing-function:steps(25)}15.30%,97.17%{transform:translateX(272.0px)}97.57%,100%{transform:translateX(0)}}.r2{animation:r2 12.35s infinite}@keyframes r2{0%,16.28%{transform:translateX(0);animation-timing-function:steps(34)}24.53%,97.17%{transform:translateX(369.2px)}97.57%,100%{transform:translateX(0)}}.r3{animation:r3 12.35s infinite}@keyframes r3{0%,25.51%{transform:translateX(0);animation-timing-function:steps(29)}32.55%,97.17%{transform:translateX(315.2px)}97.57%,100%{transform:translateX(0)}}.r4{animation:r4 12.35s infinite}@keyframes r4{0%,33.52%{transform:translateX(0);animation-timing-function:steps(24)}39.35%,97.17%{transform:translateX(261.2px)}97.57%,100%{transform:translateX(0)}}.r5{animation:r5 12.35s infinite}@keyframes r5{0%,40.32%{transform:translateX(0);animation-timing-function:steps(2)}42.35%,97.17%{transform:translateX(23.6px)}97.57%,100%{transform:translateX(0)}}.kurzor{animation:kurzor 12.35s steps(1) infinite}@keyframes kurzor{0%{opacity:0}43.32%{opacity:1}47.37%{opacity:0}51.42%{opacity:1}55.47%{opacity:0}59.51%{opacity:1}63.56%{opacity:0}67.61%{opacity:1}71.66%{opacity:0}75.71%{opacity:1}79.76%{opacity:0}83.81%{opacity:1}87.85%{opacity:0}91.90%{opacity:1}97.57%,100%{opacity:0}} @media (prefers-reduced-motion: reduce) { *, *::before, *::after { animation: none !important; } }</style><rect width="1280" height="612" rx="12" fill="#B5DC4B"/><path fill="#0A0C0B" d="M64.8 86.16Q63.73 86.16 62.94 85.74Q62.14 85.31 61.71 84.54Q61.28 83.76 61.28 82.72V77.6Q61.28 76.54 61.71 75.78Q62.14 75.01 62.94 74.58Q63.73 74.16 64.8 74.16Q65.89 74.16 66.67 74.58Q67.46 75.01 67.89 75.78Q68.32 76.54 68.32 77.6V82.72Q68.32 83.76 67.89 84.54Q67.46 85.31 66.66 85.74Q65.87 86.16 64.8 86.16ZM64.8 84.93Q65.76 84.93 66.34 84.31Q66.93 83.7 66.93 82.72V77.6Q66.93 76.62 66.34 76.01Q65.76 75.39 64.8 75.39Q63.84 75.39 63.26 76.01Q62.67 76.62 62.67 77.6V82.72Q62.67 83.7 63.26 84.31Q63.84 84.93 64.8 84.93ZM64.8 81.1Q64.37 81.1 64.1 80.83Q63.84 80.56 63.84 80.11Q63.84 79.68 64.1 79.42Q64.37 79.15 64.8 79.15Q65.23 79.15 65.5 79.42Q65.76 79.68 65.76 80.11Q65.76 80.56 65.5 80.83Q65.23 81.1 64.8 81.1ZM76.16 86V83.44H70.88V81.18L75.5 74.32H77.07L72.32 81.49V82.13H76.16V79.28H77.6V86Z"/><path fill="#0A0C0B" d="M63.77 171.1H73.39V136.91L87.82 171.1H95.52L109.88 136.99V171.1H119.5V119.3H108.03L91.82 158.45L75.32 119.3L63.77 123.3ZM136.66 171.99Q132.52 171.99 129.52 170.51Q126.53 169.03 124.97 166.51Q123.42 164 123.42 160.96Q123.42 155.19 127.56 152.05Q131.71 148.9 138.44 148.9Q141.62 148.9 143.92 149.34Q146.21 149.79 147.69 150.31V148.53Q147.69 144.68 145.51 142.91Q143.32 141.13 139.85 141.13Q137.4 141.13 135.48 142.13Q133.56 143.13 133.04 145.64H123.94Q124.38 141.72 126.6 139.02Q128.82 136.32 132.26 134.91Q135.7 133.51 139.85 133.51Q148.06 133.51 152.69 137.43Q157.31 141.35 157.31 148.53V156.82Q157.31 159.63 157.64 160.96Q157.98 162.29 158.72 162.66Q159.46 163.03 160.71 163.03H161.01V171.1H158.94Q155.02 171.1 152.43 170.06Q149.84 169.03 148.65 165.99Q146.8 168.58 143.77 170.29Q140.73 171.99 136.66 171.99ZM138.81 164.66Q141.18 164.66 142.84 163.59Q144.51 162.52 145.62 160.63Q146.73 158.74 147.17 156.52Q145.62 156.08 143.58 155.67Q141.55 155.26 139.48 155.26Q136.59 155.26 134.85 156.56Q133.11 157.85 133.11 160.15Q133.11 162.15 134.63 163.4Q136.15 164.66 138.81 164.66ZM138.29 130.03 145.03 115.53H154.2L145.1 130.03ZM176.62 171.1H181.06L183.95 162.89H179.51Q177.73 162.89 176.7 162.59Q175.66 162.29 175.29 161.37Q174.92 160.44 174.92 158.59V142.46H181.36L184.17 134.4H174.92V124.55L165.3 127.88V134.4H161.82L159.01 142.46H165.3V159.78Q165.3 164.44 166.56 166.92Q167.82 169.4 170.37 170.25Q172.92 171.1 176.62 171.1ZM202.01 171.99Q196.38 171.99 192.09 169.58Q187.8 167.18 185.36 162.92Q182.91 158.67 182.91 153.04Q182.91 147.35 185.32 142.91Q187.72 138.47 192.02 135.99Q196.31 133.51 202.01 133.51Q207.48 133.51 211.63 135.88Q215.77 138.24 218.1 142.31Q220.43 146.38 220.43 151.56Q220.43 152.3 220.43 153.19Q220.43 154.08 220.28 155.04H189.87V149.12H210.74Q210.52 145.57 208.07 143.42Q205.63 141.28 202.08 141.28Q199.42 141.28 197.2 142.46Q194.98 143.65 193.68 145.98Q192.39 148.31 192.39 151.93V154.01Q192.39 157.11 193.64 159.41Q194.9 161.7 197.05 162.92Q199.19 164.14 201.93 164.14Q204.74 164.14 206.67 162.89Q208.59 161.63 209.63 159.56H219.4Q218.36 163.03 215.95 165.88Q213.55 168.73 210 170.36Q206.45 171.99 202.01 171.99ZM243.82 187.38 253.44 184.05V169.55Q255.51 170.73 257.84 171.36Q260.17 171.99 262.76 171.99Q268.09 171.99 272.45 169.4Q276.82 166.81 279.41 162.44Q282 158.08 282 152.75Q282 147.42 279.41 143.05Q276.82 138.69 272.45 136.1Q268.09 133.51 262.76 133.51Q260.17 133.51 257.84 134.14Q255.51 134.77 253.44 135.95V134.4H243.82ZM272.08 152.75Q272.08 155.78 270.83 158.26Q269.57 160.74 267.46 162.22Q265.35 163.7 262.76 163.7Q260.17 163.7 258.06 162.22Q255.95 160.74 254.69 158.26Q253.44 155.78 253.44 152.75Q253.44 149.71 254.69 147.24Q255.95 144.76 258.06 143.28Q260.17 141.8 262.76 141.8Q265.35 141.8 267.46 143.28Q269.57 144.76 270.83 147.24Q272.08 149.71 272.08 152.75ZM284.37 171.1H293.99V155.19Q293.99 151.05 294.8 148.23Q295.62 145.42 297.36 144.02Q299.09 142.61 301.76 142.61H304.42L307.38 134.03H302.72Q299.83 134.03 297.61 135.62Q295.39 137.21 293.99 140.02V134.4H284.37ZM343.79 152.75Q343.79 147.42 341.2 143.05Q338.61 138.69 334.24 136.1Q329.88 133.51 324.55 133.51Q319.22 133.51 314.86 136.1Q310.49 138.69 307.9 143.05Q305.31 147.42 305.31 152.75Q305.31 158.08 307.9 162.44Q310.49 166.81 314.86 169.4Q319.22 171.99 324.55 171.99Q329.88 171.99 334.24 169.4Q338.61 166.81 341.2 162.44Q343.79 158.08 343.79 152.75ZM333.87 152.75Q333.87 155.78 332.62 158.26Q331.36 160.74 329.25 162.22Q327.14 163.7 324.55 163.7Q321.96 163.7 319.85 162.22Q317.74 160.74 316.48 158.26Q315.23 155.78 315.23 152.75Q315.23 149.71 316.48 147.24Q317.74 144.76 319.85 143.28Q321.96 141.8 324.55 141.8Q327.14 141.8 329.25 143.28Q331.36 144.76 332.62 147.24Q333.87 149.71 333.87 152.75ZM338.46 187.38H344.01Q347.86 187.38 350.45 186.42Q353.04 185.46 354.3 183.01Q355.56 180.57 355.56 176.06V134.4H345.94V175.61Q345.94 177.91 345.23 178.54Q344.53 179.17 342.09 179.17H341.35ZM344.6 128.33H353.11L356.37 119L346.75 122.33ZM377.16 171.99Q371.54 171.99 367.25 169.58Q362.96 167.18 360.51 162.92Q358.07 158.67 358.07 153.04Q358.07 147.35 360.48 142.91Q362.88 138.47 367.17 135.99Q371.47 133.51 377.16 133.51Q382.64 133.51 386.78 135.88Q390.93 138.24 393.26 142.31Q395.59 146.38 395.59 151.56Q395.59 152.3 395.59 153.19Q395.59 154.08 395.44 155.04H365.03V149.12H385.9Q385.67 145.57 383.23 143.42Q380.79 141.28 377.24 141.28Q374.57 141.28 372.35 142.46Q370.13 143.65 368.84 145.98Q367.54 148.31 367.54 151.93V154.01Q367.54 157.11 368.8 159.41Q370.06 161.7 372.21 162.92Q374.35 164.14 377.09 164.14Q379.9 164.14 381.83 162.89Q383.75 161.63 384.79 159.56H394.55Q393.52 163.03 391.11 165.88Q388.71 168.73 385.16 170.36Q381.6 171.99 377.16 171.99ZM398.33 171.1H407.95V160.07L411.72 156.15L423.27 171.1H435.03L417.49 150.08L432.52 134.4H421.27L407.95 149.2V117.82L398.33 121.15ZM449.24 171.1H453.68L456.57 162.89H452.13Q450.35 162.89 449.31 162.59Q448.28 162.29 447.91 161.37Q447.54 160.44 447.54 158.59V142.46H453.98L456.79 134.4H447.54V124.55L437.92 127.88V134.4H434.44L431.63 142.46H437.92V159.78Q437.92 164.44 439.18 166.92Q440.43 169.4 442.99 170.25Q445.54 171.1 449.24 171.1Z"/><path fill="#0A0C0B" d="M63.03 245.1H72.65V226.16Q72.65 221.2 75.17 218.42Q77.69 215.65 81.61 215.65Q85.68 215.65 87.56 218.13Q89.45 220.61 89.45 225.34V245.1H99.07V224.45Q99.07 216.17 95.37 211.84Q91.67 207.51 84.79 207.51Q80.65 207.51 77.54 209.25Q74.43 210.99 72.65 213.95V208.4L63.03 211.73ZM120.68 245.99Q115.06 245.99 110.76 243.58Q106.47 241.18 104.03 236.92Q101.59 232.67 101.59 227.04Q101.59 221.35 103.99 216.91Q106.4 212.47 110.69 209.99Q114.98 207.51 120.68 207.51Q126.16 207.51 130.3 209.88Q134.44 212.24 136.77 216.31Q139.11 220.38 139.11 225.56Q139.11 226.3 139.11 227.19Q139.11 228.08 138.96 229.04H108.54V223.12H129.41Q129.19 219.57 126.75 217.42Q124.31 215.28 120.75 215.28Q118.09 215.28 115.87 216.46Q113.65 217.65 112.35 219.98Q111.06 222.31 111.06 225.93V228.01Q111.06 231.11 112.32 233.41Q113.58 235.7 115.72 236.92Q117.87 238.14 120.61 238.14Q123.42 238.14 125.34 236.89Q127.27 235.63 128.3 233.56H138.07Q137.03 237.03 134.63 239.88Q132.22 242.73 128.67 244.36Q125.12 245.99 120.68 245.99ZM180.18 226.75Q180.18 221.42 177.59 217.05Q175 212.69 170.63 210.1Q166.26 207.51 160.94 207.51Q158.35 207.51 156.02 208.14Q153.68 208.77 151.61 209.95V191.82L141.99 195.15V245.1H151.61V243.55Q153.68 244.73 156.02 245.36Q158.35 245.99 160.94 245.99Q166.26 245.99 170.63 243.4Q175 240.81 177.59 236.44Q180.18 232.08 180.18 226.75ZM170.26 226.75Q170.26 229.78 169 232.26Q167.74 234.74 165.64 236.22Q163.53 237.7 160.94 237.7Q158.35 237.7 156.24 236.22Q154.13 234.74 152.87 232.26Q151.61 229.78 151.61 226.75Q151.61 223.71 152.87 221.24Q154.13 218.76 156.24 217.28Q158.35 215.8 160.94 215.8Q163.53 215.8 165.64 217.28Q167.74 218.76 169 221.24Q170.26 223.71 170.26 226.75ZM219.69 226.75Q219.69 221.42 217.1 217.05Q214.51 212.69 210.15 210.1Q205.78 207.51 200.45 207.51Q195.12 207.51 190.76 210.1Q186.39 212.69 183.8 217.05Q181.21 221.42 181.21 226.75Q181.21 232.08 183.8 236.44Q186.39 240.81 190.76 243.4Q195.12 245.99 200.45 245.99Q205.78 245.99 210.15 243.4Q214.51 240.81 217.1 236.44Q219.69 232.08 219.69 226.75ZM209.78 226.75Q209.78 229.78 208.52 232.26Q207.26 234.74 205.15 236.22Q203.04 237.7 200.45 237.7Q197.86 237.7 195.75 236.22Q193.64 234.74 192.39 232.26Q191.13 229.78 191.13 226.75Q191.13 223.71 192.39 221.24Q193.64 218.76 195.75 217.28Q197.86 215.8 200.45 215.8Q203.04 215.8 205.15 217.28Q207.26 218.76 208.52 221.24Q209.78 223.71 209.78 226.75ZM254.32 245.1H265.94L279.41 208.4H269.35L260.17 236L250.92 208.4L241.97 211.5ZM315.74 226.75Q315.74 221.42 313.15 217.05Q310.56 212.69 306.2 210.1Q301.83 207.51 296.5 207.51Q291.18 207.51 286.81 210.1Q282.44 212.69 279.85 217.05Q277.26 221.42 277.26 226.75Q277.26 232.08 279.85 236.44Q282.44 240.81 286.81 243.4Q291.18 245.99 296.5 245.99Q301.83 245.99 306.2 243.4Q310.56 240.81 313.15 236.44Q315.74 232.08 315.74 226.75ZM305.83 226.75Q305.83 229.78 304.57 232.26Q303.31 234.74 301.2 236.22Q299.09 237.7 296.5 237.7Q293.91 237.7 291.81 236.22Q289.7 234.74 288.44 232.26Q287.18 229.78 287.18 226.75Q287.18 223.71 288.44 221.24Q289.7 218.76 291.81 217.28Q293.91 215.8 296.5 215.8Q299.09 215.8 301.2 217.28Q303.31 218.76 304.57 221.24Q305.83 223.71 305.83 226.75ZM318.26 245.1H327.88V191.82L318.26 195.15ZM331.73 245.1H341.35V226.16Q341.35 221.2 343.86 218.42Q346.38 215.65 350.3 215.65Q354.37 215.65 356.26 218.13Q358.15 220.61 358.15 225.34V245.1H367.77V224.45Q367.77 216.17 364.07 211.84Q360.37 207.51 353.48 207.51Q349.34 207.51 346.23 209.25Q343.12 210.99 341.35 213.95V208.4L331.73 211.73ZM389.37 245.99Q383.75 245.99 379.46 243.58Q375.17 241.18 372.72 236.92Q370.28 232.67 370.28 227.04Q370.28 221.35 372.69 216.91Q375.09 212.47 379.38 209.99Q383.68 207.51 389.37 207.51Q394.85 207.51 398.99 209.88Q403.14 212.24 405.47 216.31Q407.8 220.38 407.8 225.56Q407.8 226.3 407.8 227.19Q407.8 228.08 407.65 229.04H377.24V223.12H398.11Q397.88 219.57 395.44 217.42Q393 215.28 389.45 215.28Q386.78 215.28 384.56 216.46Q382.34 217.65 381.05 219.98Q379.75 222.31 379.75 225.93V228.01Q379.75 231.11 381.01 233.41Q382.27 235.7 384.42 236.92Q386.56 238.14 389.3 238.14Q392.11 238.14 394.04 236.89Q395.96 235.63 397 233.56H406.76Q405.73 237.03 403.32 239.88Q400.92 242.73 397.37 244.36Q393.81 245.99 389.37 245.99ZM386.64 204.03 393.37 189.53H402.55L393.44 204.03Z"/><path fill="#0A0C0B" d="M63.03 319.1H72.65V300.16Q72.65 295.2 74.98 292.42Q77.32 289.65 81.02 289.65Q84.79 289.65 86.68 292.13Q88.56 294.61 88.56 299.34V319.1H98.11V300.16Q98.11 295.2 100.4 292.42Q102.7 289.65 106.47 289.65Q110.32 289.65 112.13 292.13Q113.95 294.61 113.95 299.34V319.1H123.49V298.45Q123.49 290.17 119.64 285.84Q115.8 281.51 108.62 281.51Q104.55 281.51 101.22 283.25Q97.89 284.99 95.82 288.02Q94.11 284.84 91.08 283.17Q88.05 281.51 83.83 281.51Q80.2 281.51 77.32 282.95Q74.43 284.39 72.65 286.91V282.4L63.03 285.73ZM127.27 319.1H136.89V282.4L127.27 285.73ZM129.56 277.22 133.63 263.53H142.81L136.44 277.22ZM156.05 319.99Q148.8 319.99 144.1 316.58Q139.4 313.18 138.81 307.48H148.65Q149.17 309.78 151.28 311.18Q153.39 312.59 156.42 312.59Q159.6 312.59 161.27 311.4Q162.93 310.22 162.93 308.52Q162.93 307.11 161.75 306.3Q160.57 305.48 157.53 305.11Q156.42 304.97 154.65 304.67Q152.87 304.37 151.76 304.15Q148.73 303.56 146.21 302.23Q143.69 300.9 142.18 298.68Q140.66 296.46 140.66 293.13Q140.66 288.24 144.32 284.88Q147.99 281.51 155.02 281.51Q162.05 281.51 166.19 284.62Q170.33 287.72 170.85 293.35H161.53Q161.31 291.13 159.42 290.02Q157.53 288.91 155.09 288.91Q152.2 288.91 150.65 289.98Q149.1 291.05 149.1 292.61Q149.1 295.27 153.98 296.16Q154.72 296.23 155.87 296.42Q157.01 296.6 158.27 296.79Q159.53 296.97 160.27 297.12Q162.42 297.42 164.49 298.08Q166.56 298.75 168.22 299.9Q169.89 301.04 170.89 302.97Q171.89 304.89 171.89 307.7Q171.89 311.33 170.04 314.11Q168.19 316.88 164.67 318.43Q161.16 319.99 156.05 319.99ZM188.76 319.1H193.2L196.09 310.89H191.65Q189.87 310.89 188.83 310.59Q187.8 310.29 187.43 309.37Q187.06 308.44 187.06 306.59V290.46H193.5L196.31 282.4H187.06V272.55L177.44 275.88V282.4H173.96L171.15 290.46H177.44V307.78Q177.44 312.44 178.7 314.92Q179.95 317.4 182.51 318.25Q185.06 319.1 188.76 319.1ZM233.53 300.75Q233.53 295.42 230.94 291.05Q228.35 286.69 223.98 284.1Q219.62 281.51 214.29 281.51Q208.96 281.51 204.6 284.1Q200.23 286.69 197.64 291.05Q195.05 295.42 195.05 300.75Q195.05 306.08 197.64 310.44Q200.23 314.81 204.6 317.4Q208.96 319.99 214.29 319.99Q219.62 319.99 223.98 317.4Q228.35 314.81 230.94 310.44Q233.53 306.08 233.53 300.75ZM223.61 300.75Q223.61 303.78 222.36 306.26Q221.1 308.74 218.99 310.22Q216.88 311.7 214.29 311.7Q211.7 311.7 209.59 310.22Q207.48 308.74 206.22 306.26Q204.97 303.78 204.97 300.75Q204.97 297.71 206.22 295.24Q207.48 292.76 209.59 291.28Q211.7 289.8 214.29 289.8Q216.88 289.8 218.99 291.28Q221.1 292.76 222.36 295.24Q223.61 297.71 223.61 300.75ZM241.08 303.34V300.3Q241.08 298.08 241.41 296.75Q241.74 295.42 242.74 294.5Q243.74 293.57 245.74 292.61L249.29 290.91Q250.55 290.24 252.21 289.17Q253.88 288.09 255.1 286.28Q256.32 284.47 256.32 281.73Q256.32 278.4 254.21 276.37Q252.1 274.33 248.63 274.33Q245 274.33 242.93 276.37Q240.86 278.4 240.86 281.8H231.68Q231.68 277.36 233.68 273.89Q235.68 270.41 239.49 268.41Q243.3 266.41 248.7 266.41Q253.66 266.41 257.47 268.23Q261.28 270.04 263.46 273.52Q265.65 276.99 265.65 281.8Q265.65 286.76 262.98 290.54Q260.32 294.31 256.1 296.38L251.22 298.9Q250.03 299.42 249.55 299.9Q249.07 300.38 249.07 301.64V303.34ZM239.23 319.1V307.85H251.22V319.1ZM289.47 319.1H299.09V282.91L323.29 319.1H332.91V267.3L323.29 270.63V303.56L299.09 267.3H289.47ZM350.15 319.99Q346.01 319.99 343.01 318.51Q340.02 317.03 338.46 314.51Q336.91 312 336.91 308.96Q336.91 303.19 341.05 300.05Q345.2 296.9 351.93 296.9Q355.11 296.9 357.41 297.34Q359.7 297.79 361.18 298.31V296.53Q361.18 292.68 359 290.91Q356.81 289.13 353.34 289.13Q350.89 289.13 348.97 290.13Q347.05 291.13 346.53 293.64H337.43Q337.87 289.72 340.09 287.02Q342.31 284.32 345.75 282.91Q349.19 281.51 353.34 281.51Q361.55 281.51 366.17 285.43Q370.8 289.35 370.8 296.53V304.82Q370.8 307.63 371.13 308.96Q371.47 310.29 372.21 310.66Q372.95 311.03 374.2 311.03H374.5V319.1H372.43Q368.51 319.1 365.92 318.06Q363.33 317.03 362.14 313.99Q360.29 316.58 357.26 318.29Q354.22 319.99 350.15 319.99ZM352.3 312.66Q354.67 312.66 356.33 311.59Q358 310.52 359.11 308.63Q360.22 306.74 360.66 304.52Q359.11 304.08 357.07 303.67Q355.04 303.26 352.97 303.26Q350.08 303.26 348.34 304.56Q346.6 305.85 346.6 308.15Q346.6 310.15 348.12 311.4Q349.64 312.66 352.3 312.66ZM376.5 335.38 386.12 332.05V317.55Q388.19 318.73 390.52 319.36Q392.85 319.99 395.44 319.99Q400.77 319.99 405.14 317.4Q409.5 314.81 412.09 310.44Q414.68 306.08 414.68 300.75Q414.68 295.42 412.09 291.05Q409.5 286.69 405.14 284.1Q400.77 281.51 395.44 281.51Q392.85 281.51 390.52 282.14Q388.19 282.77 386.12 283.95V282.4H376.5ZM404.77 300.75Q404.77 303.78 403.51 306.26Q402.25 308.74 400.14 310.22Q398.03 311.7 395.44 311.7Q392.85 311.7 390.74 310.22Q388.63 308.74 387.38 306.26Q386.12 303.78 386.12 300.75Q386.12 297.71 387.38 295.24Q388.63 292.76 390.74 291.28Q392.85 289.8 395.44 289.8Q398.03 289.8 400.14 291.28Q402.25 292.76 403.51 295.24Q404.77 297.71 404.77 300.75ZM417.05 319.1H426.67V282.4H417.05ZM416.01 276.33H424.52L427.78 267L418.16 270.33ZM445.91 319.99Q438.66 319.99 433.96 316.58Q429.26 313.18 428.67 307.48H438.51Q439.03 309.78 441.14 311.18Q443.25 312.59 446.28 312.59Q449.46 312.59 451.13 311.4Q452.79 310.22 452.79 308.52Q452.79 307.11 451.61 306.3Q450.42 305.48 447.39 305.11Q446.28 304.97 444.5 304.67Q442.73 304.37 441.62 304.15Q438.58 303.56 436.07 302.23Q433.55 300.9 432.03 298.68Q430.52 296.46 430.52 293.13Q430.52 288.24 434.18 284.88Q437.84 281.51 444.87 281.51Q451.9 281.51 456.05 284.62Q460.19 287.72 460.71 293.35H451.39Q451.16 291.13 449.28 290.02Q447.39 288.91 444.95 288.91Q442.06 288.91 440.51 289.98Q438.95 291.05 438.95 292.61Q438.95 295.27 443.84 296.16Q444.58 296.23 445.72 296.42Q446.87 296.6 448.13 296.79Q449.39 296.97 450.13 297.12Q452.27 297.42 454.35 298.08Q456.42 298.75 458.08 299.9Q459.75 301.04 460.75 302.97Q461.75 304.89 461.75 307.7Q461.75 311.33 459.9 314.11Q458.05 316.88 454.53 318.43Q451.02 319.99 445.91 319.99ZM445.39 278.99 434.51 273.07V265.97L445.39 272.33L456.2 265.97V273.07ZM478.62 319.1H483.06L485.94 310.89H481.5Q479.73 310.89 478.69 310.59Q477.66 310.29 477.29 309.37Q476.92 308.44 476.92 306.59V290.46H483.35L486.17 282.4H476.92V272.55L467.3 275.88V282.4H463.82L461.01 290.46H467.3V307.78Q467.3 312.44 468.55 314.92Q469.81 317.4 472.36 318.25Q474.92 319.1 478.62 319.1ZM504 319.99Q498.38 319.99 494.08 317.58Q489.79 315.18 487.35 310.92Q484.91 306.67 484.91 301.04Q484.91 295.35 487.31 290.91Q489.72 286.47 494.01 283.99Q498.3 281.51 504 281.51Q509.48 281.51 513.62 283.88Q517.76 286.24 520.1 290.31Q522.43 294.38 522.43 299.56Q522.43 300.3 522.43 301.19Q522.43 302.08 522.28 303.04H491.86V297.12H512.73Q512.51 293.57 510.07 291.42Q507.63 289.28 504.07 289.28Q501.41 289.28 499.19 290.46Q496.97 291.65 495.67 293.98Q494.38 296.31 494.38 299.93V302.01Q494.38 305.11 495.64 307.41Q496.9 309.7 499.04 310.92Q501.19 312.14 503.93 312.14Q506.74 312.14 508.66 310.89Q510.59 309.63 511.62 307.56H521.39Q520.35 311.03 517.95 313.88Q515.54 316.73 511.99 318.36Q508.44 319.99 504 319.99Z"/><path fill="#0A0C0B" d="M63.03 393.1H72.65V374.16Q72.65 369.2 74.98 366.42Q77.32 363.65 81.02 363.65Q84.79 363.65 86.68 366.13Q88.56 368.61 88.56 373.34V393.1H98.11V374.16Q98.11 369.2 100.4 366.42Q102.7 363.65 106.47 363.65Q110.32 363.65 112.13 366.13Q113.95 368.61 113.95 373.34V393.1H123.49V372.45Q123.49 364.17 119.64 359.84Q115.8 355.51 108.62 355.51Q104.55 355.51 101.22 357.25Q97.89 358.99 95.82 362.02Q94.11 358.84 91.08 357.17Q88.05 355.51 83.83 355.51Q80.2 355.51 77.32 356.95Q74.43 358.39 72.65 360.91V356.4L63.03 359.73ZM127.34 393.1H136.96V356.4H127.34ZM126.3 350.33H134.81L138.07 341L128.45 344.33ZM140.07 393.1V381.85H152.06V393.1Z"/><path fill="#0A0C0B" d="M62.24 493.2H65.11V487.8L67.43 485.64L72.45 493.2H75.77L69.46 483.68L75.62 477.91H71.95L65.11 484.49V471.96L62.24 472.97ZM92.71 485.55Q92.71 484.22 92.31 483.03Q91.9 481.83 91.17 480.83Q90.43 479.83 89.43 479.1Q88.43 478.36 87.24 477.96Q86.04 477.55 84.71 477.55Q83.39 477.55 82.19 477.96Q80.99 478.36 79.99 479.1Q78.99 479.83 78.26 480.83Q77.53 481.83 77.13 483.03Q76.72 484.22 76.72 485.55Q76.72 486.88 77.13 488.08Q77.53 489.28 78.26 490.28Q78.99 491.27 79.99 492.01Q80.99 492.75 82.19 493.15Q83.39 493.55 84.71 493.55Q86.04 493.55 87.24 493.15Q88.43 492.75 89.43 492.01Q90.43 491.27 91.17 490.28Q91.9 489.28 92.31 488.08Q92.71 486.88 92.71 485.55ZM89.61 485.55Q89.61 486.73 89.23 487.77Q88.84 488.81 88.17 489.59Q87.5 490.37 86.61 490.81Q85.73 491.26 84.71 491.26Q83.7 491.26 82.81 490.81Q81.92 490.37 81.25 489.59Q80.57 488.81 80.19 487.77Q79.81 486.73 79.81 485.55Q79.81 484.38 80.19 483.34Q80.57 482.3 81.25 481.52Q81.92 480.74 82.81 480.29Q83.7 479.85 84.71 479.85Q85.73 479.85 86.61 480.29Q87.5 480.74 88.17 481.52Q88.84 482.3 89.23 483.34Q89.61 484.38 89.61 485.55ZM96.09 493.2H98.97V485.47Q98.97 482.72 100.14 481.29Q101.31 479.86 103.12 479.86Q104.77 479.86 105.48 480.95Q106.19 482.04 106.19 483.87V493.2H109.06V483.66Q109.06 481.77 108.45 480.41Q107.83 479.05 106.67 478.3Q105.51 477.55 103.84 477.55Q101.97 477.55 100.67 478.47Q99.46 479.31 98.83 480.55V477.91L96.09 478.87ZM116.46 493.2H118.96L119.77 490.92H117.43Q116.99 490.92 116.86 490.76Q116.73 490.61 116.73 490.14V480.19H118.89L119.7 477.91H116.73V474.11L113.85 475.12V477.91H112.25L111.46 480.19H113.85V490.78Q113.85 491.87 114.59 492.53Q115.32 493.2 116.46 493.2ZM126.96 493.54Q128.2 493.54 129.12 493.2Q130.04 492.86 130.68 492.31Q131.32 491.76 131.72 491.12Q131.82 490.98 131.89 490.85Q131.91 491.9 132.6 492.53Q133.31 493.2 134.45 493.2H135.3L136.11 490.92H135.29Q134.85 490.92 134.72 490.76Q134.58 490.61 134.58 490.14V483.64Q134.58 481.63 133.98 480.28Q133.38 478.93 132.15 478.24Q130.91 477.55 129.02 477.55Q127.1 477.55 125.7 478.16Q124.29 478.77 123.47 479.79Q122.64 480.81 122.49 482.04L125.6 482.69Q125.67 481.33 126.49 480.55Q127.3 479.76 128.83 479.76Q130.43 479.76 131.12 480.68Q131.81 481.6 131.81 483.34V483.91H129.61Q126.99 483.91 125.27 484.58Q123.55 485.26 122.7 486.41Q121.85 487.56 121.85 489.02Q121.85 490.37 122.5 491.39Q123.14 492.41 124.29 492.97Q125.45 493.54 126.96 493.54ZM127.69 491.32Q126.74 491.32 126.13 490.98Q125.52 490.65 125.23 490.11Q124.94 489.56 124.94 488.91Q124.94 488.24 125.36 487.56Q125.77 486.87 126.79 486.4Q127.81 485.94 129.6 485.94H131.82V486.12Q131.82 487.93 131.25 489.08Q130.69 490.23 129.75 490.77Q128.8 491.32 127.69 491.32ZM139.28 493.2H142.16V487.8L144.48 485.64L149.49 493.2H152.82L146.5 483.68L152.66 477.91H149L142.16 484.49V471.96L139.28 472.97ZM159.21 493.2H161.71L162.52 490.92H160.18Q159.74 490.92 159.61 490.76Q159.48 490.61 159.48 490.14V480.19H161.64L162.45 477.91H159.48V474.11L156.6 475.12V477.91H155L154.21 480.19H156.6V490.78Q156.6 491.87 157.34 492.53Q158.07 493.2 159.21 493.2ZM177.02 496.26Q173.25 496.26 170.48 494.84Q167.72 493.41 166.22 490.81Q164.71 488.2 164.71 484.66Q164.71 481.06 166.24 478.37Q167.76 475.68 170.49 474.19Q173.22 472.7 176.85 472.7Q180.22 472.7 182.85 474.01Q185.47 475.32 186.98 477.74Q188.49 480.16 188.49 483.51Q188.49 485.48 187.99 486.77Q187.5 488.06 186.69 488.81Q185.88 489.56 184.98 489.91Q184.09 490.27 183.26 490.37Q182.43 490.47 181.88 490.47H180.38Q179.5 490.47 178.98 490.02Q178.46 489.58 178.46 488.78Q178.46 488.53 178.51 488.27L178.61 487.82L178.9 488.12Q178.18 489.5 177.12 490.11Q176.06 490.72 174.87 490.72Q172.94 490.72 171.89 489.43Q170.85 488.13 170.85 486.11Q170.85 485 171.17 483.74Q171.5 482.48 172.18 481.36Q172.87 480.23 173.95 479.51Q175.02 478.8 176.5 478.8Q177.85 478.8 178.85 479.49Q179.84 480.17 180.11 481.38L179.92 481.55L180.46 479.07H182.8L180.91 487.93Q180.87 488.14 180.87 488.23Q180.87 488.51 181.3 488.51H182.7Q182.97 488.51 183.48 488.41Q184 488.3 184.55 487.88Q185.1 487.45 185.49 486.5Q185.87 485.54 185.87 483.81Q185.87 480.82 184.65 478.86Q183.43 476.89 181.4 475.91Q179.36 474.93 176.86 474.93Q173.93 474.93 171.8 476.18Q169.67 477.43 168.5 479.63Q167.33 481.83 167.33 484.69Q167.33 487.59 168.53 489.67Q169.73 491.74 171.93 492.85Q174.13 493.96 177.13 493.96H185.94V496.26ZM175.76 488.73Q176.74 488.73 177.42 488.21Q178.11 487.69 178.54 486.89Q178.97 486.09 179.17 485.21Q179.37 484.34 179.37 483.64Q179.37 482.24 178.7 481.52Q178.04 480.8 177.02 480.8Q176.1 480.8 175.44 481.32Q174.78 481.84 174.36 482.66Q173.93 483.47 173.73 484.36Q173.54 485.26 173.54 485.99Q173.54 487.37 174.14 488.05Q174.74 488.73 175.76 488.73ZM190.23 498.72H192.88Q194 498.72 194.74 498.06Q195.48 497.39 195.48 496.3V477.91H192.61V495.66Q192.61 496.13 192.48 496.29Q192.35 496.44 191.9 496.44H191.02ZM194.05 475.54Q193.11 475.54 192.48 474.91Q191.85 474.28 191.85 473.35Q191.85 472.38 192.48 471.76Q193.11 471.14 194.05 471.14Q195 471.14 195.63 471.76Q196.26 472.38 196.26 473.35Q196.26 474.28 195.63 474.91Q195 475.54 194.05 475.54ZM199.93 493.2H202.81V477.91L199.93 478.91ZM201.38 475.54Q200.43 475.54 199.8 474.91Q199.17 474.28 199.17 473.35Q199.17 472.38 199.8 471.76Q200.43 471.14 201.38 471.14Q202.32 471.14 202.95 471.76Q203.58 472.38 203.58 473.35Q203.58 474.28 202.95 474.91Q202.32 475.54 201.38 475.54ZM207.22 493.2H210.1V485.88Q210.1 484.05 210.56 482.93Q211.02 481.8 211.7 481.22Q212.38 480.64 213.11 480.43Q213.84 480.23 214.37 480.23Q214.9 480.23 215.44 480.34L216.3 477.86Q215.93 477.69 215.52 477.62Q215.11 477.55 214.7 477.55Q213.26 477.55 211.9 478.37Q210.65 479.14 209.96 480.57V477.91H207.22ZM218.69 493.2H221.57V487.8L223.89 485.64L228.9 493.2H232.23L225.91 483.68L232.07 477.91H228.41L221.57 484.49V471.96L218.69 472.97ZM238.86 493.54Q240.09 493.54 241.01 493.2Q241.93 492.86 242.57 492.31Q243.22 491.76 243.61 491.12Q243.71 490.98 243.78 490.85Q243.8 491.9 244.49 492.53Q245.2 493.2 246.35 493.2H247.2L248 490.92H247.18Q246.74 490.92 246.61 490.76Q246.48 490.61 246.48 490.14V483.64Q246.48 481.63 245.87 480.28Q245.27 478.93 244.04 478.24Q242.81 477.55 240.91 477.55Q239 477.55 237.59 478.16Q236.18 478.77 235.36 479.79Q234.54 480.81 234.38 482.04L237.5 482.69Q237.57 481.33 238.38 480.55Q239.2 479.76 240.73 479.76Q242.33 479.76 243.01 480.68Q243.7 481.6 243.7 483.34V483.91H241.5Q238.89 483.91 237.16 484.58Q235.44 485.26 234.59 486.41Q233.75 487.56 233.75 489.02Q233.75 490.37 234.39 491.39Q235.03 492.41 236.19 492.97Q237.34 493.54 238.86 493.54ZM239.58 491.32Q238.63 491.32 238.02 490.98Q237.41 490.65 237.12 490.11Q236.83 489.56 236.83 488.91Q236.83 488.24 237.25 487.56Q237.67 486.87 238.69 486.4Q239.71 485.94 241.49 485.94H243.71V486.12Q243.71 487.93 243.15 489.08Q242.58 490.23 241.64 490.77Q240.7 491.32 239.58 491.32ZM251.2 498.72 254.04 497.73V491.87Q255.06 492.66 256.3 493.11Q257.55 493.55 258.94 493.55Q260.25 493.55 261.46 493.15Q262.66 492.75 263.66 492.01Q264.66 491.27 265.39 490.28Q266.13 489.28 266.53 488.08Q266.94 486.88 266.94 485.55Q266.94 484.22 266.53 483.03Q266.13 481.83 265.39 480.83Q264.66 479.83 263.66 479.1Q262.66 478.36 261.46 477.96Q260.25 477.55 258.94 477.55Q257.51 477.55 256.22 478.03Q254.94 478.5 253.92 479.32V477.91H251.2ZM263.84 485.55Q263.84 486.73 263.45 487.77Q263.07 488.81 262.4 489.59Q261.73 490.37 260.84 490.81Q259.96 491.26 258.94 491.26Q257.92 491.26 257.03 490.81Q256.15 490.37 255.47 489.59Q254.8 488.81 254.42 487.77Q254.04 486.73 254.04 485.55Q254.04 484.38 254.42 483.34Q254.8 482.3 255.47 481.52Q256.15 480.74 257.03 480.29Q257.92 479.85 258.94 479.85Q259.96 479.85 260.84 480.29Q261.73 480.74 262.4 481.52Q263.07 482.3 263.45 483.34Q263.84 484.38 263.84 485.55ZM277.36 493.55Q275.15 493.55 273.51 492.57Q271.86 491.59 270.95 489.79Q270.04 488 270.04 485.55Q270.04 483.1 270.94 481.31Q271.85 479.52 273.48 478.54Q275.11 477.55 277.27 477.55Q278.51 477.55 279.75 477.94Q281 478.33 282.03 479.29Q283.06 480.26 283.69 481.94Q284.31 483.61 284.31 486.19H271.89V484.14H281.79L281.17 484.99Q281.1 483.12 280.55 481.98Q280.01 480.84 279.14 480.32Q278.26 479.8 277.22 479.8Q275.93 479.8 275.01 480.49Q274.1 481.18 273.62 482.47Q273.14 483.76 273.14 485.58Q273.14 488.27 274.22 489.77Q275.31 491.26 277.34 491.26Q278.79 491.26 279.78 490.53Q280.77 489.8 281.25 488.4L283.99 489.24Q283.43 490.64 282.47 491.6Q281.51 492.56 280.2 493.06Q278.9 493.55 277.36 493.55ZM290.31 493.2H291.9L292.71 490.92H291.31Q290.87 490.92 290.73 490.76Q290.6 490.61 290.6 490.14V471.96L287.71 472.97V490.78Q287.71 491.87 288.45 492.53Q289.2 493.2 290.31 493.2ZM295.72 493.2H298.6V477.91L295.72 478.91ZM297.17 475.54Q296.22 475.54 295.59 474.91Q294.96 474.28 294.96 473.35Q294.96 472.38 295.59 471.76Q296.22 471.14 297.17 471.14Q298.12 471.14 298.75 471.76Q299.38 472.38 299.38 473.35Q299.38 474.28 298.75 474.91Q298.12 475.54 297.17 475.54ZM303.07 493.2H305.95V487.8L308.27 485.64L313.28 493.2H316.61L310.29 483.68L316.45 477.91H312.79L305.95 484.49V471.96L303.07 472.97ZM323.24 493.54Q324.47 493.54 325.39 493.2Q326.31 492.86 326.95 492.31Q327.6 491.76 328 491.12Q328.09 490.98 328.17 490.85Q328.18 491.9 328.87 492.53Q329.58 493.2 330.73 493.2H331.58L332.38 490.92H331.56Q331.12 490.92 330.99 490.76Q330.86 490.61 330.86 490.14V483.64Q330.86 481.63 330.25 480.28Q329.65 478.93 328.42 478.24Q327.19 477.55 325.29 477.55Q323.38 477.55 321.97 478.16Q320.56 478.77 319.74 479.79Q318.92 480.81 318.76 482.04L321.88 482.69Q321.95 481.33 322.76 480.55Q323.58 479.76 325.11 479.76Q326.71 479.76 327.39 480.68Q328.08 481.6 328.08 483.34V483.91H325.89Q323.27 483.91 321.55 484.58Q319.82 485.26 318.98 486.41Q318.13 487.56 318.13 489.02Q318.13 490.37 318.77 491.39Q319.41 492.41 320.57 492.97Q321.72 493.54 323.24 493.54ZM323.96 491.32Q323.01 491.32 322.4 490.98Q321.79 490.65 321.5 490.11Q321.21 489.56 321.21 488.91Q321.21 488.24 321.63 487.56Q322.05 486.87 323.07 486.4Q324.09 485.94 325.87 485.94H328.09V486.12Q328.09 487.93 327.53 489.08Q326.96 490.23 326.02 490.77Q325.08 491.32 323.96 491.32ZM335.54 493.2H338.42V485.47Q338.42 482.72 339.59 481.29Q340.75 479.86 342.57 479.86Q344.22 479.86 344.93 480.95Q345.64 482.04 345.64 483.87V493.2H348.51V483.66Q348.51 481.77 347.9 480.41Q347.28 479.05 346.12 478.3Q344.96 477.55 343.29 477.55Q341.42 477.55 340.12 478.47Q338.91 479.31 338.28 480.55V477.91L335.54 478.87ZM354.83 493.55Q353.81 493.55 353.14 492.88Q352.46 492.21 352.46 491.19Q352.46 490.17 353.14 489.5Q353.81 488.82 354.83 488.82Q355.83 488.82 356.51 489.5Q357.18 490.17 357.18 491.19Q357.18 492.21 356.51 492.88Q355.83 493.55 354.83 493.55ZM366.86 493.55Q364.64 493.55 363.01 492.58Q361.38 491.6 360.51 489.8Q359.63 488 359.63 485.55Q359.63 483.09 360.51 481.3Q361.38 479.51 363.01 478.53Q364.63 477.55 366.85 477.55Q368.52 477.55 369.87 478.16Q371.21 478.77 372.15 479.92Q373.1 481.08 373.51 482.72L370.66 483.42Q370.28 481.67 369.31 480.76Q368.34 479.85 366.85 479.85Q364.84 479.85 363.78 481.36Q362.73 482.86 362.73 485.57Q362.73 488.27 363.78 489.77Q364.84 491.26 366.85 491.26Q368.32 491.26 369.29 490.39Q370.26 489.52 370.66 487.83L373.46 488.51Q373.14 489.74 372.51 490.68Q371.89 491.61 371.03 492.25Q370.18 492.89 369.12 493.22Q368.07 493.55 366.86 493.55ZM375.46 493.2H387.3L388.16 490.75H378.89L387.86 480.22V477.91H376.71L375.84 480.36H384.34L375.46 490.89Z"/><rect x="60" y="501.3" width="329.3" height="2" fill="#0A0C0B"/><path fill="#0A0C0B" d="M64.56 542.65Q65.55 542.65 66.27 542.27Q66.99 541.88 67.38 541.17Q67.77 540.46 67.77 539.5V536.92H64.64L64.2 538.15H66.42V539.5Q66.42 540.43 65.93 540.94Q65.44 541.45 64.56 541.45Q63.67 541.45 63.17 540.94Q62.67 540.43 62.67 539.5V534.53Q62.67 533.61 63.17 533.11Q63.67 532.62 64.56 532.62Q65.44 532.62 65.93 533.12Q66.42 533.62 66.42 534.55H67.77Q67.77 533.58 67.38 532.87Q66.99 532.16 66.27 531.78Q65.55 531.4 64.56 531.4Q63.57 531.4 62.84 531.77Q62.12 532.15 61.72 532.86Q61.32 533.56 61.32 534.55V539.5Q61.32 540.48 61.72 541.19Q62.12 541.9 62.84 542.27Q63.57 542.65 64.56 542.65ZM70.28 542.5H76.89L77.33 541.27H74.55V534.25H71.08L70.65 535.48H73.2V541.27H70.71ZM73.72 532.76Q73.23 532.76 72.94 532.51Q72.66 532.25 72.66 531.82Q72.66 531.37 72.94 531.11Q73.23 530.85 73.72 530.85Q74.22 530.85 74.5 531.11Q74.79 531.37 74.79 531.82Q74.79 532.25 74.5 532.51Q74.22 532.76 73.72 532.76ZM83.4 542.5H85.22L85.65 541.27H83.4Q82.5 541.27 82.5 540.33V535.48H85.36L85.8 534.25H82.5V531.92L81.15 532.4V534.25H79.26L78.83 535.48H81.15V540.33Q81.15 541.36 81.74 541.93Q82.33 542.5 83.4 542.5ZM88.39 542.5H89.75V537.46H93.25V542.5H94.61V531.55H93.25V536.23H89.75V531.55L88.39 532.03ZM100.48 542.65Q101.91 542.65 102.78 541.8Q103.65 540.96 103.65 539.5V534.25H102.3V539.5Q102.3 540.43 101.81 540.95Q101.33 541.47 100.48 541.47Q99.66 541.47 99.18 540.95Q98.7 540.43 98.7 539.5V534.25L97.35 534.72V539.5Q97.35 540.96 98.2 541.8Q99.06 542.65 100.48 542.65ZM109.98 542.65Q111.22 542.65 111.97 541.83Q112.72 541 112.72 539.59V537.17Q112.72 535.75 111.97 534.92Q111.22 534.1 109.98 534.1Q108.97 534.1 108.36 534.65Q107.83 535.12 107.75 535.83H107.7L107.73 533.95V531.55L106.38 532.03V542.5H107.73V540.92H107.75Q107.83 541.64 108.34 542.1Q108.96 542.65 109.98 542.65ZM109.53 541.48Q108.7 541.48 108.22 540.95Q107.73 540.43 107.73 539.5V537.25Q107.73 536.32 108.22 535.8Q108.7 535.27 109.53 535.27Q110.39 535.27 110.88 535.78Q111.38 536.29 111.38 537.25V539.5Q111.38 540.46 110.88 540.97Q110.39 541.48 109.53 541.48Z"/><g fill="none" stroke="#0A0C0B" stroke-width="1.4" stroke-linecap="square"><path d="M120.0 540.5 L127.5 533.0"/><path d="M122.625 533.0 H127.5 V537.875"/></g><rect x="60" y="548.5" width="74.0" height="1.2" fill="#0A0C0B"/><path fill="#0A0C0B" d="M161.72 542.5H167.59L168.03 541.27H163.07V531.55H161.72ZM170.28 542.5H176.89L177.32 541.27H174.55V534.25H171.09L170.65 535.48H173.2V541.27H170.71ZM173.72 532.76Q173.23 532.76 172.94 532.51Q172.66 532.25 172.66 531.82Q172.66 531.37 172.94 531.11Q173.23 530.85 173.72 530.85Q174.22 530.85 174.5 531.11Q174.79 531.37 174.79 531.82Q174.79 532.25 174.5 532.51Q174.22 532.76 173.72 532.76ZM179.38 542.5H180.73V537.25Q180.73 536.29 181.22 535.78Q181.71 535.27 182.54 535.27Q183.35 535.27 183.83 535.74Q184.3 536.22 184.3 537.1V542.5H185.65V536.95Q185.65 535.63 184.92 534.87Q184.18 534.1 182.94 534.1Q181.9 534.1 181.31 534.62Q180.84 535.08 180.75 535.83H180.73V534.25L179.38 534.72ZM188.43 542.5H189.78V538.83H191.38L193.78 542.5H195.35L192.53 538.18L195.31 534.25H193.76L191.37 537.65H189.78V531.55L188.43 532.03ZM200.5 542.65Q199.53 542.65 198.8 542.26Q198.07 541.87 197.67 541.16Q197.28 540.45 197.28 539.5V537.25Q197.28 536.29 197.67 535.59Q198.07 534.88 198.8 534.49Q199.53 534.1 200.5 534.1Q201.47 534.1 202.2 534.49Q202.93 534.88 203.33 535.59Q203.72 536.29 203.72 537.25V538.71H198.59V539.5Q198.59 540.48 199.09 540.99Q199.59 541.51 200.5 541.51Q201.28 541.51 201.76 541.23Q202.24 540.96 202.34 540.4H203.69Q203.56 541.43 202.68 542.04Q201.81 542.65 200.5 542.65ZM202.41 537.8V537.25Q202.41 536.27 201.92 535.75Q201.43 535.23 200.5 535.23Q199.59 535.23 199.09 535.75Q198.59 536.27 198.59 537.25V537.68H202.51ZM209.02 542.65Q210.04 542.65 210.66 542.1Q211.16 541.64 211.25 540.92H211.27V542.5H212.62V531.55L211.27 532.03V533.95L211.3 535.83H211.25Q211.16 535.12 210.66 534.65Q210.04 534.1 209.02 534.1Q207.78 534.1 207.03 534.92Q206.28 535.75 206.28 537.17V539.59Q206.28 541 207.03 541.83Q207.79 542.65 209.02 542.65ZM209.47 541.48Q208.62 541.48 208.12 540.97Q207.62 540.46 207.62 539.5V537.25Q207.62 536.29 208.12 535.78Q208.62 535.27 209.47 535.27Q210.31 535.27 210.79 535.8Q211.27 536.32 211.27 537.25V539.5Q211.27 540.43 210.79 540.95Q210.31 541.48 209.47 541.48ZM215.57 542.5H220.99L221.43 541.27H219.19V532.78H220.99L221.43 531.55H216.01L215.57 532.78H217.81V541.27H216.01ZM224.38 542.5H225.73V537.25Q225.73 536.29 226.22 535.78Q226.71 535.27 227.54 535.27Q228.35 535.27 228.83 535.74Q229.3 536.22 229.3 537.1V542.5H230.65V536.95Q230.65 535.63 229.92 534.87Q229.18 534.1 227.94 534.1Q226.9 534.1 226.31 534.62Q225.84 535.08 225.75 535.83H225.73V534.25L224.38 534.72Z"/><g fill="none" stroke="#0A0C0B" stroke-width="1.4" stroke-linecap="square"><path d="M238.0 540.5 L245.5 533.0"/><path d="M240.625 533.0 H245.5 V537.875"/></g><rect x="160.0" y="548.5" width="92.0" height="1.2" fill="#0A0C0B"/><rect x="700" y="178.9" width="520" height="264.6" rx="6" fill="#7f9c2e"/><rect x="700" y="168.9" width="520" height="264.6" rx="6" fill="#0A0C0B"/><path fill="#858C80" d="M730.05 215.88Q729.15 215.88 728.48 215.53Q727.81 215.17 727.44 214.51Q727.08 213.86 727.08 212.98V208.66Q727.08 207.77 727.44 207.12Q727.81 206.48 728.48 206.12Q729.15 205.76 730.05 205.76Q730.97 205.76 731.63 206.12Q732.29 206.48 732.66 207.12Q733.02 207.77 733.02 208.66V212.98Q733.02 213.86 732.66 214.51Q732.29 215.17 731.62 215.53Q730.95 215.88 730.05 215.88ZM730.05 214.85Q730.86 214.85 731.35 214.33Q731.85 213.81 731.85 212.98V208.66Q731.85 207.84 731.35 207.32Q730.86 206.8 730.05 206.8Q729.24 206.8 728.75 207.32Q728.25 207.84 728.25 208.66V212.98Q728.25 213.81 728.75 214.33Q729.24 214.85 730.05 214.85ZM730.05 211.62Q729.69 211.62 729.46 211.39Q729.24 211.16 729.24 210.78Q729.24 210.42 729.46 210.19Q729.69 209.97 730.05 209.97Q730.41 209.97 730.64 210.19Q730.86 210.42 730.86 210.78Q730.86 211.16 730.64 211.39Q730.41 211.62 730.05 211.62ZM735.32 215.75H741L741.39 214.64H739.2V205.9H737.54L735.32 207.56V208.91L737.99 206.91V214.64H735.71Z"/><clipPath id="r0"><rect class="r0" x="616.0" y="195.1" width="153.2" height="28.8"/></clipPath><g clip-path="url(#r0)"><path fill="#C6E86A" d="M774.67 215.93Q773.48 215.93 772.59 215.48Q771.7 215.03 771.22 214.18Q770.73 213.32 770.73 212.15V209.45Q770.73 208.26 771.22 207.42Q771.7 206.57 772.59 206.12Q773.48 205.67 774.67 205.67Q776.38 205.67 777.43 206.59Q778.47 207.51 778.52 209.09H776.9Q776.85 208.14 776.27 207.62Q775.68 207.11 774.67 207.11Q773.61 207.11 772.98 207.71Q772.35 208.32 772.35 209.43V212.15Q772.35 213.27 772.98 213.88Q773.61 214.49 774.67 214.49Q775.68 214.49 776.27 213.97Q776.85 213.45 776.9 212.51H778.52Q778.47 214.09 777.43 215.01Q776.38 215.93 774.67 215.93ZM785.4 215.89Q784.21 215.89 783.35 215.44Q782.48 214.99 782.01 214.14Q781.53 213.28 781.53 212.11V209.49Q781.53 208.3 782.01 207.45Q782.48 206.61 783.35 206.16Q784.21 205.71 785.4 205.71Q786.59 205.71 787.45 206.16Q788.32 206.61 788.79 207.45Q789.27 208.3 789.27 209.47V212.11Q789.27 213.28 788.79 214.14Q788.32 214.99 787.45 215.44Q786.59 215.89 785.4 215.89ZM785.4 214.45Q786.46 214.45 787.06 213.86Q787.65 213.27 787.65 212.11V209.49Q787.65 208.33 787.06 207.74Q786.46 207.15 785.4 207.15Q784.36 207.15 783.75 207.74Q783.15 208.33 783.15 209.49V212.11Q783.15 213.27 783.75 213.86Q784.36 214.45 785.4 214.45ZM792.46 215.75H794.08V209.45Q794.08 208.3 794.66 207.69Q795.25 207.07 796.25 207.07Q797.23 207.07 797.79 207.64Q798.36 208.21 798.36 209.27V215.75H799.98V209.09Q799.98 207.51 799.1 206.59Q798.22 205.67 796.72 205.67Q795.48 205.67 794.78 206.3Q794.2 206.84 794.09 207.74H794.08V205.85L792.46 206.41ZM806.69 215.89Q805.69 215.89 804.94 215.58Q804.19 215.26 803.75 214.69Q803.31 214.11 803.22 213.32H804.84Q804.95 213.84 805.42 214.15Q805.9 214.45 806.69 214.45H807.45Q808.4 214.45 808.87 214.07Q809.34 213.68 809.34 213.03Q809.34 212.4 808.92 212.03Q808.49 211.66 807.67 211.54L806.33 211.32Q804.88 211.07 804.16 210.41Q803.45 209.76 803.45 208.5Q803.45 207.16 804.3 206.44Q805.15 205.71 806.84 205.71H807.52Q808.94 205.71 809.81 206.37Q810.67 207.04 810.85 208.17H809.23Q809.12 207.7 808.69 207.43Q808.26 207.15 807.52 207.15H806.84Q805.92 207.15 805.5 207.49Q805.07 207.83 805.07 208.51Q805.07 209.13 805.43 209.41Q805.79 209.7 806.57 209.83L807.9 210.04Q809.5 210.3 810.23 210.98Q810.96 211.66 810.96 212.96Q810.96 214.33 810.09 215.11Q809.21 215.89 807.45 215.89ZM818.88 215.75H821.06L821.58 214.27H818.88Q817.8 214.27 817.8 213.14V207.33H821.24L821.76 205.85H817.8V203.06L816.18 203.64V205.85H813.91L813.39 207.33H816.18V213.14Q816.18 214.38 816.89 215.07Q817.6 215.75 818.88 215.75Z"/><path fill="#ECEEE8" d=""/><path fill="#ECEEE8" d="M835.53 218.99H837.85Q839.67 218.99 840.75 217.96Q841.83 216.94 841.83 215.19V205.85H836.59L836.07 207.33H840.21V215.19Q840.21 216.29 839.59 216.89Q838.97 217.5 837.85 217.5H836.05ZM840.93 204.07Q840.34 204.07 839.99 203.76Q839.65 203.46 839.65 202.93Q839.65 202.39 839.99 202.08Q840.34 201.76 840.93 201.76Q841.52 201.76 841.87 202.08Q842.21 202.39 842.21 202.93Q842.21 203.46 841.87 203.76Q841.52 204.07 840.93 204.07ZM846.33 215.75H854.27L854.79 214.27H851.46V205.85H847.3L846.78 207.33H849.84V214.27H846.85ZM850.47 204.07Q849.88 204.07 849.53 203.76Q849.19 203.46 849.19 202.93Q849.19 202.39 849.53 202.08Q849.88 201.76 850.47 201.76Q851.06 201.76 851.41 202.08Q851.75 202.39 851.75 202.93Q851.75 203.46 851.41 203.76Q851.06 204.07 850.47 204.07ZM857.6 215.75H859.22V209.45Q859.22 208.3 859.8 207.67Q860.39 207.04 861.41 207.04Q862.46 207.04 863.02 207.66Q863.59 208.28 863.59 209.45V209.9H865.21V209.31Q865.21 207.63 864.29 206.65Q863.36 205.67 861.79 205.67Q860.42 205.67 859.74 206.48Q859.36 206.93 859.18 207.61V205.85L857.6 206.41ZM867.93 215.75H875.87L876.39 214.27H873.06V205.85H868.9L868.38 207.33H871.44V214.27H868.45ZM872.07 204.07Q871.48 204.07 871.13 203.76Q870.79 203.46 870.79 202.93Q870.79 202.39 871.13 202.08Q871.48 201.76 872.07 201.76Q872.66 201.76 873.01 202.08Q873.35 202.39 873.35 202.93Q873.35 203.46 873.01 203.76Q872.66 204.07 872.07 204.07Z" stroke="#ECEEE8" stroke-width="0.81"/><path fill="#ECEEE8" d="M889.53 208.37V206.93H897.27V208.37ZM889.53 212.69V211.25H897.27V212.69ZM918.06 217.73Q917 217.73 916.23 217.38Q915.47 217.03 915.07 216.35Q914.68 215.68 914.73 214.74L914.91 211.79Q914.96 210.84 914.62 210.41Q914.28 209.99 913.11 209.99H911.13V208.55H913.11Q914.28 208.55 914.62 208.13Q914.96 207.7 914.91 206.75L914.73 203.8Q914.68 202.84 915.07 202.18Q915.47 201.51 916.23 201.16Q917 200.81 918.06 200.81H918.87V202.25H918.06Q917.21 202.25 916.76 202.64Q916.31 203.02 916.35 203.8L916.53 206.75Q916.6 207.92 915.97 208.61Q915.34 209.31 914.19 209.31V209.22Q915.32 209.22 915.96 209.92Q916.6 210.62 916.53 211.79L916.35 214.74Q916.31 215.52 916.76 215.9Q917.21 216.29 918.06 216.29H918.87V217.73Z"/></g><path fill="#858C80" d="M730.05 250.98Q729.15 250.98 728.48 250.63Q727.81 250.27 727.44 249.61Q727.08 248.96 727.08 248.08V243.76Q727.08 242.87 727.44 242.22Q727.81 241.58 728.48 241.22Q729.15 240.86 730.05 240.86Q730.97 240.86 731.63 241.22Q732.29 241.58 732.66 242.22Q733.02 242.87 733.02 243.76V248.08Q733.02 248.96 732.66 249.61Q732.29 250.27 731.62 250.63Q730.95 250.98 730.05 250.98ZM730.05 249.95Q730.86 249.95 731.35 249.43Q731.85 248.91 731.85 248.08V243.76Q731.85 242.94 731.35 242.42Q730.86 241.9 730.05 241.9Q729.24 241.9 728.75 242.42Q728.25 242.94 728.25 243.76V248.08Q728.25 248.91 728.75 249.43Q729.24 249.95 730.05 249.95ZM730.05 246.72Q729.69 246.72 729.46 246.49Q729.24 246.26 729.24 245.88Q729.24 245.52 729.46 245.29Q729.69 245.07 730.05 245.07Q730.41 245.07 730.64 245.29Q730.86 245.52 730.86 245.88Q730.86 246.26 730.64 246.49Q730.41 246.72 730.05 246.72ZM735.34 250.85H740.81L741.2 249.74H736.71L739.14 247.23Q740.15 246.18 740.59 245.36Q741.04 244.53 741.04 243.69Q741.04 242.82 740.69 242.18Q740.34 241.55 739.68 241.2Q739.03 240.86 738.14 240.86Q737.23 240.86 736.55 241.21Q735.87 241.56 735.48 242.22Q735.1 242.87 735.07 243.76H736.29Q736.29 242.91 736.78 242.43Q737.27 241.94 738.14 241.94Q738.92 241.94 739.37 242.41Q739.82 242.88 739.82 243.71Q739.82 244.3 739.47 244.94Q739.12 245.59 738.35 246.41L735.34 249.61Z"/><clipPath id="r1"><rect class="r1" x="497.2" y="230.2" width="272.0" height="28.8"/></clipPath><g clip-path="url(#r1)"><path fill="#ECEEE8" d="M793.01 250.85H794.8L795.91 244.01Q796 243.51 796.07 243Q796.15 242.5 796.18 242.21Q796.22 242.5 796.31 243Q796.4 243.51 796.47 244.01L797.53 250.85H799.31L800.97 240.95H799.6L798.58 247.97Q798.52 248.37 798.44 248.82Q798.36 249.28 798.32 249.59Q798.29 249.28 798.21 248.82Q798.13 248.37 798.07 247.97L796.97 240.95H795.43L794.33 247.97Q794.27 248.37 794.19 248.82Q794.11 249.28 794.08 249.59Q794.04 249.28 793.98 248.82Q793.91 248.37 793.86 247.97L792.87 240.95L791.5 241.44ZM807 251.03Q805.83 251.03 804.96 250.56Q804.08 250.09 803.61 249.24Q803.13 248.38 803.13 247.25V244.55Q803.13 243.4 803.61 242.55Q804.08 241.71 804.96 241.24Q805.83 240.77 807 240.77Q808.17 240.77 809.04 241.24Q809.92 241.71 810.39 242.55Q810.87 243.4 810.87 244.55V246.3H804.71V247.25Q804.71 248.42 805.31 249.04Q805.9 249.66 807 249.66Q807.94 249.66 808.51 249.33Q809.09 249 809.21 248.33H810.83Q810.67 249.57 809.62 250.3Q808.57 251.03 807 251.03ZM809.29 245.22V244.55Q809.29 243.38 808.7 242.75Q808.12 242.12 807 242.12Q805.9 242.12 805.31 242.75Q804.71 243.38 804.71 244.55V245.07H809.41ZM818.38 251.03Q819.87 251.03 820.77 250.04Q821.67 249.05 821.67 247.36V244.46Q821.67 242.75 820.77 241.76Q819.87 240.77 818.38 240.77Q817.17 240.77 816.43 241.44Q815.8 241.99 815.69 242.84H815.64L815.68 240.59V237.71L814.06 238.29V250.85H815.68V248.96H815.69Q815.8 249.82 816.41 250.36Q817.15 251.03 818.38 251.03ZM817.84 249.63Q816.85 249.63 816.26 249Q815.68 248.37 815.68 247.25V244.55Q815.68 243.43 816.26 242.8Q816.85 242.17 817.84 242.17Q818.86 242.17 819.46 242.79Q820.05 243.4 820.05 244.55V247.25Q820.05 248.4 819.46 249.01Q818.86 249.63 817.84 249.63ZM828.6 243.47Q827.93 243.47 827.52 243.1Q827.11 242.73 827.11 242.12Q827.11 241.51 827.52 241.14Q827.93 240.77 828.6 240.77Q829.28 240.77 829.69 241.14Q830.09 241.51 830.09 242.12Q830.09 242.73 829.69 243.1Q829.28 243.47 828.6 243.47ZM828.6 251.03Q827.93 251.03 827.52 250.66Q827.11 250.29 827.11 249.68Q827.11 249.07 827.52 248.7Q827.93 248.33 828.6 248.33Q829.28 248.33 829.69 248.7Q830.09 249.07 830.09 249.68Q830.09 250.29 829.69 250.66Q829.28 251.03 828.6 251.03Z"/><path fill="#A2A99D" d="M849.44 243.11 849.23 240.41V237.71H850.97V240.41L850.78 243.11ZM857.13 254.09H859.45Q861.27 254.09 862.35 253.06Q863.43 252.04 863.43 250.29V240.95H858.19L857.67 242.43H861.81V250.29Q861.81 251.39 861.19 251.99Q860.57 252.6 859.45 252.6H857.65ZM862.53 239.17Q861.94 239.17 861.59 238.86Q861.25 238.56 861.25 238.03Q861.25 237.49 861.59 237.18Q861.94 236.86 862.53 236.86Q863.12 236.86 863.47 237.18Q863.81 237.49 863.81 238.03Q863.81 238.56 863.47 238.86Q863.12 239.17 862.53 239.17ZM867.93 250.85H875.87L876.39 249.37H873.06V240.95H868.9L868.38 242.43H871.44V249.37H868.45ZM872.07 239.17Q871.48 239.17 871.13 238.86Q870.79 238.56 870.79 238.03Q870.79 237.49 871.13 237.18Q871.48 236.86 872.07 236.86Q872.66 236.86 873.01 237.18Q873.35 237.49 873.35 238.03Q873.35 238.56 873.01 238.86Q872.66 239.17 872.07 239.17ZM879.2 250.85H880.82V244.55Q880.82 243.4 881.4 242.77Q881.99 242.14 883.01 242.14Q884.06 242.14 884.62 242.76Q885.19 243.38 885.19 244.55V245H886.81V244.41Q886.81 242.73 885.88 241.75Q884.96 240.77 883.39 240.77Q882.02 240.77 881.34 241.58Q880.96 242.03 880.78 242.71V240.95L879.2 241.51ZM889.71 250.85H891.33V246.44H893.26L896.14 250.85H898.03L894.64 245.67L897.97 240.95H896.12L893.24 245.04H891.33V237.71L889.71 238.29ZM903.34 251.03Q901.77 251.03 900.87 250.23Q899.97 249.43 899.97 248.06Q899.97 246.67 900.87 245.88Q901.77 245.09 903.3 245.09H906.36V244.1Q906.36 243.18 905.81 242.69Q905.26 242.19 904.25 242.19Q903.37 242.19 902.78 242.56Q902.18 242.93 902.09 243.56H900.47Q900.64 242.28 901.68 241.53Q902.72 240.77 904.29 240.77Q906 240.77 906.99 241.65Q907.98 242.53 907.98 244.05V250.85H906.4V248.96H906.13L906.4 248.69Q906.4 249.77 905.56 250.4Q904.72 251.03 903.34 251.03ZM903.73 249.75Q904.88 249.75 905.62 249.18Q906.36 248.6 906.36 247.7V246.3H903.34Q902.53 246.3 902.06 246.75Q901.59 247.2 901.59 247.97Q901.59 248.8 902.16 249.27Q902.72 249.75 903.73 249.75ZM911.26 254.09 912.88 253.51V251.21L912.84 248.96H912.89Q913 249.81 913.63 250.36Q914.39 251.03 915.59 251.03Q916.6 251.03 917.33 250.58Q918.06 250.13 918.47 249.3Q918.87 248.47 918.87 247.34V244.44Q918.87 242.73 917.98 241.75Q917.09 240.77 915.59 240.77Q914.37 240.77 913.63 241.42Q913 241.98 912.89 242.84H912.88V240.95H911.26ZM915.05 249.63Q914.06 249.63 913.47 249Q912.88 248.37 912.88 247.25V244.55Q912.88 243.43 913.47 242.8Q914.06 242.17 915.05 242.17Q916.08 242.17 916.66 242.79Q917.25 243.4 917.25 244.55V247.25Q917.25 248.4 916.66 249.01Q916.08 249.63 915.05 249.63ZM925.8 251.03Q924.63 251.03 923.76 250.56Q922.88 250.09 922.41 249.24Q921.93 248.38 921.93 247.25V244.55Q921.93 243.4 922.41 242.55Q922.88 241.71 923.76 241.24Q924.63 240.77 925.8 240.77Q926.97 240.77 927.84 241.24Q928.72 241.71 929.19 242.55Q929.67 243.4 929.67 244.55V246.3H923.51V247.25Q923.51 248.42 924.11 249.04Q924.7 249.66 925.8 249.66Q926.74 249.66 927.31 249.33Q927.89 249 928.01 248.33H929.63Q929.47 249.57 928.42 250.3Q927.37 251.03 925.8 251.03ZM928.09 245.22V244.55Q928.09 243.38 927.5 242.75Q926.92 242.12 925.8 242.12Q924.7 242.12 924.11 242.75Q923.51 243.38 923.51 244.55V245.07H928.21ZM937.95 250.85H940.58L941.1 249.37H937.95Q937.37 249.37 937.03 249.02Q936.69 248.67 936.69 248.06V237.71H932.26L931.74 239.19H935.07V248.06Q935.07 248.91 935.43 249.54Q935.79 250.17 936.44 250.51Q937.09 250.85 937.95 250.85ZM943.53 250.85H951.47L951.99 249.37H948.66V240.95H944.5L943.98 242.43H947.04V249.37H944.05ZM947.67 239.17Q947.08 239.17 946.73 238.86Q946.39 238.56 946.39 238.03Q946.39 237.49 946.73 237.18Q947.08 236.86 947.67 236.86Q948.26 236.86 948.61 237.18Q948.95 237.49 948.95 238.03Q948.95 238.56 948.61 238.86Q948.26 239.17 947.67 239.17ZM954.51 250.85H956.13V246.44H958.06L960.94 250.85H962.83L959.44 245.67L962.77 240.95H960.92L958.04 245.04H956.13V237.71L954.51 238.29ZM968.14 251.03Q966.57 251.03 965.67 250.23Q964.77 249.43 964.77 248.06Q964.77 246.67 965.67 245.88Q966.57 245.09 968.1 245.09H971.16V244.1Q971.16 243.18 970.61 242.69Q970.06 242.19 969.05 242.19Q968.17 242.19 967.58 242.56Q966.98 242.93 966.89 243.56H965.27Q965.44 242.28 966.48 241.53Q967.52 240.77 969.09 240.77Q970.8 240.77 971.79 241.65Q972.78 242.53 972.78 244.05V250.85H971.2V248.96H970.93L971.2 248.69Q971.2 249.77 970.36 250.4Q969.52 251.03 968.14 251.03ZM968.53 249.75Q969.68 249.75 970.42 249.18Q971.16 248.6 971.16 247.7V246.3H968.14Q967.33 246.3 966.86 246.75Q966.39 247.2 966.39 247.97Q966.39 248.8 966.96 249.27Q967.52 249.75 968.53 249.75ZM976.06 250.85H977.68V244.55Q977.68 243.4 978.26 242.79Q978.85 242.17 979.85 242.17Q980.83 242.17 981.39 242.74Q981.96 243.31 981.96 244.37V250.85H983.58V244.19Q983.58 242.61 982.7 241.69Q981.82 240.77 980.32 240.77Q979.08 240.77 978.38 241.4Q977.8 241.94 977.69 242.84H977.68V240.95L976.06 241.51ZM990.6 251.03Q989.92 251.03 989.51 250.63Q989.11 250.24 989.11 249.57Q989.11 248.87 989.51 248.46Q989.92 248.04 990.6 248.04Q991.28 248.04 991.69 248.46Q992.09 248.87 992.09 249.57Q992.09 250.24 991.69 250.63Q991.28 251.03 990.6 251.03ZM1001.47 251.03Q1000.28 251.03 999.39 250.58Q998.5 250.13 998.02 249.27Q997.53 248.42 997.53 247.25V244.55Q997.53 243.36 998.02 242.52Q998.5 241.67 999.39 241.22Q1000.28 240.77 1001.47 240.77Q1003.18 240.77 1004.23 241.69Q1005.27 242.61 1005.32 244.19H1003.7Q1003.65 243.24 1003.07 242.72Q1002.48 242.21 1001.47 242.21Q1000.41 242.21 999.78 242.81Q999.15 243.42 999.15 244.53V247.25Q999.15 248.37 999.78 248.98Q1000.41 249.59 1001.47 249.59Q1002.48 249.59 1003.07 249.07Q1003.65 248.55 1003.7 247.61H1005.32Q1005.27 249.19 1004.23 250.11Q1003.18 251.03 1001.47 251.03ZM1008.42 250.85H1015.46L1015.98 249.37H1010.13L1015.78 242.57V240.95H1009.09L1008.56 242.43H1013.96L1008.42 249.23ZM1022.24 243.11 1022.03 240.41V237.71H1023.77V240.41L1023.58 243.11Z"/><path fill="#ECEEE8" d="M1031.37 253.73 1032.81 248.13H1035.15L1032.81 253.73Z"/></g><path fill="#858C80" d="M730.05 286.08Q729.15 286.08 728.48 285.73Q727.81 285.37 727.44 284.71Q727.08 284.06 727.08 283.18V278.86Q727.08 277.97 727.44 277.32Q727.81 276.68 728.48 276.32Q729.15 275.96 730.05 275.96Q730.97 275.96 731.63 276.32Q732.29 276.68 732.66 277.32Q733.02 277.97 733.02 278.86V283.18Q733.02 284.06 732.66 284.71Q732.29 285.37 731.62 285.73Q730.95 286.08 730.05 286.08ZM730.05 285.05Q730.86 285.05 731.35 284.53Q731.85 284.01 731.85 283.18V278.86Q731.85 278.04 731.35 277.52Q730.86 277 730.05 277Q729.24 277 728.75 277.52Q728.25 278.04 728.25 278.86V283.18Q728.25 284.01 728.75 284.53Q729.24 285.05 730.05 285.05ZM730.05 281.82Q729.69 281.82 729.46 281.59Q729.24 281.36 729.24 280.98Q729.24 280.62 729.46 280.39Q729.69 280.17 730.05 280.17Q730.41 280.17 730.64 280.39Q730.86 280.62 730.86 280.98Q730.86 281.36 730.64 281.59Q730.41 281.82 730.05 281.82ZM738 286.08Q738.89 286.08 739.57 285.73Q740.24 285.37 740.61 284.74Q740.99 284.1 740.99 283.25V282.55Q740.99 281.25 740.19 280.48Q739.43 279.75 738.19 279.71L740.67 277.31V276.09H735.84L735.45 277.2H739.45L737 279.58V280.79H738.01Q738.85 280.79 739.31 281.25Q739.77 281.71 739.77 282.55V283.25Q739.77 284.03 739.31 284.52Q738.85 285 738.01 285Q737.19 285 736.73 284.54Q736.26 284.07 736.26 283.25H735.05Q735.05 284.1 735.41 284.74Q735.77 285.37 736.44 285.73Q737.11 286.08 738 286.08Z"/><clipPath id="r2"><rect class="r2" x="400.0" y="265.2" width="369.2" height="28.8"/></clipPath><g clip-path="url(#r2)"><path fill="#ECEEE8" d="M791.99 285.95H793.48V278.39Q793.48 277.78 793.73 277.44Q793.99 277.11 794.49 277.11Q794.99 277.11 795.27 277.44Q795.55 277.78 795.55 278.41V285.95H796.85V278.39Q796.85 277.78 797.13 277.44Q797.41 277.11 797.89 277.11Q798.4 277.11 798.66 277.45Q798.92 277.8 798.92 278.41V285.95H800.41V278.43Q800.41 277.27 799.9 276.57Q799.39 275.87 798.45 275.87Q797.69 275.87 797.24 276.36Q796.9 276.72 796.81 277.24H796.74Q796.63 276.79 796.4 276.48Q795.95 275.87 795.12 275.87Q794.36 275.87 793.93 276.36Q793.61 276.72 793.52 277.24H793.41V276.05L791.99 276.55ZM806.14 286.13Q804.57 286.13 803.67 285.33Q802.77 284.53 802.77 283.16Q802.77 281.77 803.67 280.98Q804.57 280.19 806.1 280.19H809.16V279.2Q809.16 278.28 808.61 277.79Q808.06 277.29 807.05 277.29Q806.17 277.29 805.58 277.66Q804.98 278.03 804.89 278.66H803.27Q803.44 277.38 804.48 276.63Q805.52 275.87 807.09 275.87Q808.8 275.87 809.79 276.75Q810.78 277.63 810.78 279.15V285.95H809.2V284.06H808.93L809.2 283.79Q809.2 284.87 808.36 285.5Q807.52 286.13 806.14 286.13ZM806.53 284.85Q807.68 284.85 808.42 284.28Q809.16 283.7 809.16 282.8V281.4H806.14Q805.33 281.4 804.86 281.85Q804.39 282.3 804.39 283.07Q804.39 283.9 804.96 284.38Q805.52 284.85 806.53 284.85ZM813.93 285.95H821.87L822.39 284.47H819.06V276.05H814.9L814.38 277.53H817.44V284.47H814.45ZM818.07 274.27Q817.48 274.27 817.13 273.96Q816.79 273.66 816.79 273.13Q816.79 272.59 817.13 272.28Q817.48 271.96 818.07 271.96Q818.66 271.96 819.01 272.28Q819.35 272.59 819.35 273.13Q819.35 273.66 819.01 273.96Q818.66 274.27 818.07 274.27ZM829.95 285.95H832.58L833.1 284.47H829.95Q829.37 284.47 829.03 284.12Q828.69 283.77 828.69 283.16V272.81H824.26L823.74 274.29H827.07V283.16Q827.07 284.01 827.43 284.64Q827.79 285.27 828.44 285.61Q829.09 285.95 829.95 285.95ZM839.4 278.57Q838.73 278.57 838.32 278.2Q837.91 277.83 837.91 277.22Q837.91 276.61 838.32 276.24Q838.73 275.87 839.4 275.87Q840.08 275.87 840.49 276.24Q840.89 276.61 840.89 277.22Q840.89 277.83 840.49 278.2Q840.08 278.57 839.4 278.57ZM839.4 286.13Q838.73 286.13 838.32 285.76Q837.91 285.39 837.91 284.78Q837.91 284.17 838.32 283.8Q838.73 283.43 839.4 283.43Q840.08 283.43 840.49 283.8Q840.89 284.17 840.89 284.78Q840.89 285.39 840.49 285.76Q840.08 286.13 839.4 286.13Z"/><path fill="#A2A99D" d="M860.24 278.21 860.03 275.51V272.81H861.77V275.51L861.58 278.21ZM868.11 285.95H869.73V281.54H871.66L874.54 285.95H876.43L873.04 280.77L876.37 276.05H874.52L871.64 280.14H869.73V272.81L868.11 273.39ZM882.6 286.09Q881.41 286.09 880.55 285.64Q879.68 285.19 879.21 284.34Q878.73 283.48 878.73 282.31V279.69Q878.73 278.5 879.21 277.65Q879.68 276.81 880.55 276.36Q881.41 275.91 882.6 275.91Q883.79 275.91 884.65 276.36Q885.52 276.81 885.99 277.65Q886.47 278.5 886.47 279.67V282.31Q886.47 283.48 885.99 284.34Q885.52 285.19 884.65 285.64Q883.79 286.09 882.6 286.09ZM882.6 284.65Q883.66 284.65 884.26 284.06Q884.85 283.47 884.85 282.31V279.69Q884.85 278.53 884.26 277.94Q883.66 277.35 882.6 277.35Q881.56 277.35 880.95 277.94Q880.35 278.53 880.35 279.69V282.31Q880.35 283.47 880.95 284.06Q881.56 284.65 882.6 284.65ZM889.66 285.95H891.28V279.65Q891.28 278.5 891.86 277.89Q892.45 277.27 893.45 277.27Q894.43 277.27 894.99 277.84Q895.56 278.41 895.56 279.47V285.95H897.18V279.29Q897.18 277.71 896.3 276.79Q895.42 275.87 893.92 275.87Q892.68 275.87 891.98 276.5Q891.4 277.04 891.29 277.94H891.28V276.05L889.66 276.61ZM905.28 285.95H907.46L907.98 284.47H905.28Q904.2 284.47 904.2 283.34V277.53H907.64L908.16 276.05H904.2V273.26L902.58 273.84V276.05H900.31L899.79 277.53H902.58V283.34Q902.58 284.58 903.29 285.27Q904 285.95 905.28 285.95ZM914.14 286.13Q912.57 286.13 911.67 285.33Q910.77 284.53 910.77 283.16Q910.77 281.77 911.67 280.98Q912.57 280.19 914.1 280.19H917.16V279.2Q917.16 278.28 916.61 277.79Q916.06 277.29 915.05 277.29Q914.17 277.29 913.58 277.66Q912.98 278.03 912.89 278.66H911.27Q911.44 277.38 912.48 276.63Q913.52 275.87 915.09 275.87Q916.8 275.87 917.79 276.75Q918.78 277.63 918.78 279.15V285.95H917.2V284.06H916.93L917.2 283.79Q917.2 284.87 916.36 285.5Q915.52 286.13 914.14 286.13ZM914.53 284.85Q915.68 284.85 916.42 284.28Q917.16 283.7 917.16 282.8V281.4H914.14Q913.33 281.4 912.86 281.85Q912.39 282.3 912.39 283.07Q912.39 283.9 912.96 284.38Q913.52 284.85 914.53 284.85ZM922.11 285.95H923.73V281.54H925.66L928.54 285.95H930.43L927.04 280.77L930.37 276.05H928.52L925.64 280.14H923.73V272.81L922.11 273.39ZM937.68 285.95H939.86L940.38 284.47H937.68Q936.6 284.47 936.6 283.34V277.53H940.04L940.56 276.05H936.6V273.26L934.98 273.84V276.05H932.71L932.19 277.53H934.98V283.34Q934.98 284.58 935.69 285.27Q936.4 285.95 937.68 285.95ZM947.85 289.19Q946.32 289.19 945.19 288.55Q944.05 287.91 943.43 286.73Q942.81 285.55 942.81 283.97V277.85Q942.81 276.23 943.39 275.06Q943.98 273.89 945.07 273.26Q946.16 272.63 947.67 272.63Q949.04 272.63 950.03 273.16Q951.02 273.69 951.55 274.68Q952.08 275.67 952.08 277.04V284.78H950.8V283.79H950.3L950.64 283.43Q950.64 284.11 950.12 284.54Q949.6 284.96 948.73 284.96Q947.56 284.96 946.94 284.25Q946.32 283.54 946.32 282.17V280.01Q946.32 278.64 946.94 277.93Q947.56 277.22 948.73 277.22Q949.6 277.22 950.12 277.64Q950.64 278.07 950.64 278.77L950.39 278.39H950.82L950.64 277.13V277.04Q950.64 276.01 950.3 275.31Q949.96 274.61 949.3 274.25Q948.64 273.89 947.67 273.89Q946.05 273.89 945.15 274.93Q944.25 275.98 944.25 277.85V283.97Q944.25 285.77 945.21 286.8Q946.18 287.84 947.85 287.84H949.11V289.19ZM949.2 283.83Q949.94 283.83 950.29 283.38Q950.64 282.93 950.64 281.99V279.99Q950.64 279.15 950.29 278.75Q949.94 278.35 949.2 278.35Q948.48 278.35 948.12 278.76Q947.76 279.16 947.76 280.01V282.17Q947.76 283.02 948.12 283.42Q948.48 283.83 949.2 283.83ZM954.33 289.19H956.65Q958.47 289.19 959.55 288.16Q960.63 287.14 960.63 285.39V276.05H955.39L954.87 277.53H959.01V285.39Q959.01 286.49 958.39 287.09Q957.77 287.7 956.65 287.7H954.85ZM959.73 274.27Q959.14 274.27 958.79 273.96Q958.45 273.66 958.45 273.13Q958.45 272.59 958.79 272.28Q959.14 271.96 959.73 271.96Q960.32 271.96 960.67 272.28Q961.01 272.59 961.01 273.13Q961.01 273.66 960.67 273.96Q960.32 274.27 959.73 274.27ZM965.13 285.95H973.07L973.59 284.47H970.26V276.05H966.1L965.58 277.53H968.64V284.47H965.65ZM969.27 274.27Q968.68 274.27 968.33 273.96Q967.99 273.66 967.99 273.13Q967.99 272.59 968.33 272.28Q968.68 271.96 969.27 271.96Q969.86 271.96 970.21 272.28Q970.55 272.59 970.55 273.13Q970.55 273.66 970.21 273.96Q969.86 274.27 969.27 274.27ZM976.4 285.95H978.02V279.65Q978.02 278.5 978.6 277.87Q979.19 277.24 980.21 277.24Q981.26 277.24 981.82 277.86Q982.39 278.48 982.39 279.65V280.1H984.01V279.51Q984.01 277.83 983.09 276.85Q982.16 275.87 980.59 275.87Q979.22 275.87 978.54 276.68Q978.16 277.13 977.98 277.81V276.05L976.4 276.61ZM986.91 285.95H988.53V281.54H990.46L993.34 285.95H995.23L991.84 280.77L995.17 276.05H993.32L990.44 280.14H988.53V272.81L986.91 273.39ZM1000.54 286.13Q998.97 286.13 998.07 285.33Q997.17 284.53 997.17 283.16Q997.17 281.77 998.07 280.98Q998.97 280.19 1000.5 280.19H1003.56V279.2Q1003.56 278.28 1003.01 277.79Q1002.46 277.29 1001.45 277.29Q1000.57 277.29 999.98 277.66Q999.38 278.03 999.29 278.66H997.67Q997.84 277.38 998.88 276.63Q999.92 275.87 1001.49 275.87Q1003.2 275.87 1004.19 276.75Q1005.18 277.63 1005.18 279.15V285.95H1003.6V284.06H1003.33L1003.6 283.79Q1003.6 284.87 1002.76 285.5Q1001.92 286.13 1000.54 286.13ZM1000.93 284.85Q1002.08 284.85 1002.82 284.28Q1003.56 283.7 1003.56 282.8V281.4H1000.54Q999.73 281.4 999.26 281.85Q998.79 282.3 998.79 283.07Q998.79 283.9 999.36 284.38Q999.92 284.85 1000.93 284.85ZM1008.46 289.19 1010.08 288.61V286.31L1010.04 284.06H1010.09Q1010.2 284.91 1010.83 285.46Q1011.59 286.13 1012.79 286.13Q1013.8 286.13 1014.53 285.68Q1015.26 285.23 1015.66 284.4Q1016.07 283.57 1016.07 282.44V279.54Q1016.07 277.83 1015.18 276.85Q1014.29 275.87 1012.79 275.87Q1011.57 275.87 1010.83 276.52Q1010.2 277.08 1010.09 277.94H1010.08V276.05H1008.46ZM1012.25 284.73Q1011.26 284.73 1010.67 284.1Q1010.08 283.47 1010.08 282.35V279.65Q1010.08 278.53 1010.67 277.9Q1011.26 277.27 1012.25 277.27Q1013.28 277.27 1013.87 277.89Q1014.45 278.5 1014.45 279.65V282.35Q1014.45 283.5 1013.87 284.11Q1013.28 284.73 1012.25 284.73ZM1023 286.13Q1021.83 286.13 1020.96 285.66Q1020.08 285.19 1019.61 284.34Q1019.13 283.48 1019.13 282.35V279.65Q1019.13 278.5 1019.61 277.65Q1020.08 276.81 1020.96 276.34Q1021.83 275.87 1023 275.87Q1024.17 275.87 1025.04 276.34Q1025.92 276.81 1026.39 277.65Q1026.87 278.5 1026.87 279.65V281.4H1020.71V282.35Q1020.71 283.52 1021.31 284.14Q1021.9 284.76 1023 284.76Q1023.94 284.76 1024.51 284.43Q1025.09 284.1 1025.21 283.43H1026.83Q1026.67 284.67 1025.62 285.4Q1024.57 286.13 1023 286.13ZM1025.29 280.32V279.65Q1025.29 278.48 1024.7 277.85Q1024.12 277.22 1023 277.22Q1021.9 277.22 1021.31 277.85Q1020.71 278.48 1020.71 279.65V280.17H1025.41ZM1035.15 285.95H1037.78L1038.3 284.47H1035.15Q1034.57 284.47 1034.23 284.12Q1033.89 283.77 1033.89 283.16V272.81H1029.46L1028.94 274.29H1032.27V283.16Q1032.27 284.01 1032.63 284.64Q1032.99 285.27 1033.64 285.61Q1034.29 285.95 1035.15 285.95ZM1040.73 285.95H1048.67L1049.19 284.47H1045.86V276.05H1041.7L1041.18 277.53H1044.24V284.47H1041.25ZM1044.87 274.27Q1044.28 274.27 1043.93 273.96Q1043.59 273.66 1043.59 273.13Q1043.59 272.59 1043.93 272.28Q1044.28 271.96 1044.87 271.96Q1045.46 271.96 1045.81 272.28Q1046.15 272.59 1046.15 273.13Q1046.15 273.66 1045.81 273.96Q1045.46 274.27 1044.87 274.27ZM1051.71 285.95H1053.33V281.54H1055.26L1058.14 285.95H1060.03L1056.64 280.77L1059.97 276.05H1058.12L1055.24 280.14H1053.33V272.81L1051.71 273.39ZM1065.34 286.13Q1063.77 286.13 1062.87 285.33Q1061.97 284.53 1061.97 283.16Q1061.97 281.77 1062.87 280.98Q1063.77 280.19 1065.3 280.19H1068.36V279.2Q1068.36 278.28 1067.81 277.79Q1067.26 277.29 1066.25 277.29Q1065.37 277.29 1064.78 277.66Q1064.18 278.03 1064.09 278.66H1062.47Q1062.64 277.38 1063.68 276.63Q1064.72 275.87 1066.29 275.87Q1068 275.87 1068.99 276.75Q1069.98 277.63 1069.98 279.15V285.95H1068.4V284.06H1068.13L1068.4 283.79Q1068.4 284.87 1067.56 285.5Q1066.72 286.13 1065.34 286.13ZM1065.73 284.85Q1066.88 284.85 1067.62 284.28Q1068.36 283.7 1068.36 282.8V281.4H1065.34Q1064.53 281.4 1064.06 281.85Q1063.59 282.3 1063.59 283.07Q1063.59 283.9 1064.16 284.38Q1064.72 284.85 1065.73 284.85ZM1073.26 285.95H1074.88V279.65Q1074.88 278.5 1075.46 277.89Q1076.05 277.27 1077.05 277.27Q1078.03 277.27 1078.59 277.84Q1079.16 278.41 1079.16 279.47V285.95H1080.78V279.29Q1080.78 277.71 1079.9 276.79Q1079.02 275.87 1077.52 275.87Q1076.28 275.87 1075.58 276.5Q1075 277.04 1074.89 277.94H1074.88V276.05L1073.26 276.61ZM1087.8 286.13Q1087.12 286.13 1086.71 285.73Q1086.31 285.34 1086.31 284.67Q1086.31 283.97 1086.71 283.56Q1087.12 283.14 1087.8 283.14Q1088.48 283.14 1088.89 283.56Q1089.29 283.97 1089.29 284.67Q1089.29 285.34 1088.89 285.73Q1088.48 286.13 1087.8 286.13ZM1098.67 286.13Q1097.48 286.13 1096.59 285.68Q1095.7 285.23 1095.22 284.38Q1094.73 283.52 1094.73 282.35V279.65Q1094.73 278.46 1095.22 277.62Q1095.7 276.77 1096.59 276.32Q1097.48 275.87 1098.67 275.87Q1100.38 275.87 1101.43 276.79Q1102.47 277.71 1102.52 279.29H1100.9Q1100.85 278.34 1100.27 277.82Q1099.68 277.31 1098.67 277.31Q1097.61 277.31 1096.98 277.91Q1096.35 278.52 1096.35 279.63V282.35Q1096.35 283.47 1096.98 284.08Q1097.61 284.69 1098.67 284.69Q1099.68 284.69 1100.27 284.17Q1100.85 283.65 1100.9 282.71H1102.52Q1102.47 284.29 1101.43 285.21Q1100.38 286.13 1098.67 286.13ZM1105.62 285.95H1112.66L1113.18 284.47H1107.33L1112.98 277.67V276.05H1106.29L1105.76 277.53H1111.16L1105.62 284.33ZM1119.44 278.21 1119.23 275.51V272.81H1120.97V275.51L1120.78 278.21Z"/><path fill="#ECEEE8" d="M1128.57 288.83 1130.01 283.23H1132.35L1130.01 288.83Z"/></g><path fill="#858C80" d="M730.05 321.19Q729.15 321.19 728.48 320.83Q727.81 320.47 727.44 319.81Q727.08 319.16 727.08 318.28V313.96Q727.08 313.07 727.44 312.42Q727.81 311.78 728.48 311.42Q729.15 311.06 730.05 311.06Q730.97 311.06 731.63 311.42Q732.29 311.78 732.66 312.42Q733.02 313.07 733.02 313.96V318.28Q733.02 319.16 732.66 319.81Q732.29 320.47 731.62 320.83Q730.95 321.19 730.05 321.19ZM730.05 320.15Q730.86 320.15 731.35 319.63Q731.85 319.11 731.85 318.28V313.96Q731.85 313.14 731.35 312.62Q730.86 312.1 730.05 312.1Q729.24 312.1 728.75 312.62Q728.25 313.14 728.25 313.96V318.28Q728.25 319.11 728.75 319.63Q729.24 320.15 730.05 320.15ZM730.05 316.92Q729.69 316.92 729.46 316.69Q729.24 316.46 729.24 316.08Q729.24 315.72 729.46 315.49Q729.69 315.27 730.05 315.27Q730.41 315.27 730.64 315.49Q730.86 315.72 730.86 316.08Q730.86 316.46 730.64 316.69Q730.41 316.92 730.05 316.92ZM739.63 321.05V318.89H735.18V316.99L739.08 311.19H740.4L736.39 317.24V317.78H739.63V315.38H740.85V321.05Z"/><clipPath id="r3"><rect class="r3" x="454.0" y="300.4" width="315.2" height="28.8"/></clipPath><g clip-path="url(#r3)"><path fill="#ECEEE8" d="M793.7 324.29H796.83Q798.29 324.29 799.11 323.52Q799.93 322.74 799.93 321.41V311.15H798.32V313.04H798.31Q798.23 312.16 797.6 311.6Q796.88 310.97 795.68 310.97Q794.15 310.97 793.27 311.96Q792.38 312.95 792.38 314.64V316.73Q792.38 318.42 793.27 319.42Q794.15 320.42 795.68 320.42Q796.88 320.42 797.6 319.79Q798.23 319.23 798.31 318.35H798.34L798.31 320.15V321.41Q798.31 322.13 797.96 322.47Q797.6 322.81 796.85 322.81H794.22ZM796.16 319.02Q795.14 319.02 794.57 318.4Q794 317.79 794 316.64V314.75Q794 313.6 794.57 312.99Q795.14 312.37 796.16 312.37Q797.17 312.37 797.75 313Q798.32 313.63 798.32 314.75V316.64Q798.32 317.76 797.75 318.39Q797.17 319.02 796.16 319.02ZM803.13 321.05H811.07L811.59 319.57H808.26V311.15H804.1L803.58 312.63H806.64V319.57H803.65ZM807.27 309.37Q806.68 309.37 806.33 309.06Q805.99 308.76 805.99 308.23Q805.99 307.69 806.33 307.38Q806.68 307.06 807.27 307.06Q807.86 307.06 808.21 307.38Q808.55 307.69 808.55 308.23Q808.55 308.76 808.21 309.06Q807.86 309.37 807.27 309.37ZM818.88 321.05H821.06L821.58 319.57H818.88Q817.8 319.57 817.8 318.44V312.63H821.24L821.76 311.15H817.8V308.36L816.18 308.94V311.15H813.91L813.39 312.63H816.18V318.44Q816.18 319.68 816.89 320.37Q817.6 321.05 818.88 321.05ZM828.6 313.67Q827.93 313.67 827.52 313.3Q827.11 312.93 827.11 312.32Q827.11 311.71 827.52 311.34Q827.93 310.97 828.6 310.97Q829.28 310.97 829.69 311.34Q830.09 311.71 830.09 312.32Q830.09 312.93 829.69 313.3Q829.28 313.67 828.6 313.67ZM828.6 321.23Q827.93 321.23 827.52 320.86Q827.11 320.49 827.11 319.88Q827.11 319.27 827.52 318.9Q827.93 318.53 828.6 318.53Q829.28 318.53 829.69 318.9Q830.09 319.27 830.09 319.88Q830.09 320.49 829.69 320.86Q829.28 321.23 828.6 321.23Z"/><path fill="#A2A99D" d="M849.44 313.31 849.23 310.61V307.91H850.97V310.61L850.78 313.31ZM858.5 324.29H861.63Q863.09 324.29 863.91 323.52Q864.73 322.74 864.73 321.41V311.15H863.12V313.04H863.11Q863.03 312.16 862.4 311.6Q861.68 310.97 860.48 310.97Q858.95 310.97 858.07 311.96Q857.18 312.95 857.18 314.64V316.73Q857.18 318.42 858.07 319.42Q858.95 320.42 860.48 320.42Q861.68 320.42 862.4 319.79Q863.03 319.23 863.11 318.35H863.14L863.11 320.15V321.41Q863.11 322.13 862.75 322.47Q862.4 322.81 861.65 322.81H859.02ZM860.96 319.02Q859.94 319.02 859.37 318.4Q858.8 317.79 858.8 316.64V314.75Q858.8 313.6 859.37 312.99Q859.94 312.37 860.96 312.37Q861.97 312.37 862.55 313Q863.12 313.63 863.12 314.75V316.64Q863.12 317.76 862.55 318.39Q861.97 319.02 860.96 319.02ZM867.93 321.05H875.87L876.39 319.57H873.06V311.15H868.9L868.38 312.63H871.44V319.57H868.45ZM872.07 309.37Q871.48 309.37 871.13 309.06Q870.79 308.76 870.79 308.23Q870.79 307.69 871.13 307.38Q871.48 307.06 872.07 307.06Q872.66 307.06 873.01 307.38Q873.35 307.69 873.35 308.23Q873.35 308.76 873.01 309.06Q872.66 309.37 872.07 309.37ZM883.68 321.05H885.86L886.38 319.57H883.68Q882.6 319.57 882.6 318.44V312.63H886.04L886.56 311.15H882.6V308.36L880.98 308.94V311.15H878.71L878.19 312.63H880.98V318.44Q880.98 319.68 881.69 320.37Q882.4 321.05 883.68 321.05ZM889.66 321.05H891.28V314.75Q891.28 313.6 891.86 312.97Q892.45 312.34 893.45 312.34Q894.43 312.34 894.99 312.92Q895.56 313.51 895.56 314.57V321.05H897.18V314.39Q897.18 312.81 896.3 311.89Q895.42 310.97 893.92 310.97Q892.68 310.97 891.98 311.6Q891.4 312.14 891.29 313.04H891.28V307.91L889.66 308.49ZM904.18 321.23Q905.89 321.23 906.94 320.21Q907.98 319.2 907.98 317.45V311.15H906.36V317.45Q906.36 318.57 905.78 319.19Q905.19 319.81 904.18 319.81Q903.19 319.81 902.62 319.19Q902.04 318.57 902.04 317.45V311.15L900.42 311.71V317.45Q900.42 319.2 901.45 320.21Q902.47 321.23 904.18 321.23ZM915.58 321.23Q917.07 321.23 917.97 320.24Q918.87 319.25 918.87 317.56V314.66Q918.87 312.95 917.97 311.96Q917.07 310.97 915.58 310.97Q914.37 310.97 913.63 311.64Q913 312.19 912.89 313.04H912.84L912.88 310.79V307.91L911.26 308.49V321.05H912.88V319.16H912.89Q913 320.02 913.61 320.56Q914.35 321.23 915.58 321.23ZM915.04 319.83Q914.05 319.83 913.46 319.2Q912.88 318.57 912.88 317.45V314.75Q912.88 313.63 913.46 313Q914.05 312.37 915.04 312.37Q916.06 312.37 916.66 312.99Q917.25 313.6 917.25 314.75V317.45Q917.25 318.6 916.66 319.21Q916.06 319.83 915.04 319.83ZM925.8 321.23Q925.12 321.23 924.71 320.83Q924.31 320.44 924.31 319.77Q924.31 319.07 924.71 318.66Q925.12 318.24 925.8 318.24Q926.48 318.24 926.89 318.66Q927.29 319.07 927.29 319.77Q927.29 320.44 926.89 320.83Q926.48 321.23 925.8 321.23ZM936.67 321.23Q935.48 321.23 934.59 320.78Q933.7 320.33 933.22 319.48Q932.73 318.62 932.73 317.45V314.75Q932.73 313.56 933.22 312.72Q933.7 311.87 934.59 311.42Q935.48 310.97 936.67 310.97Q938.38 310.97 939.43 311.89Q940.47 312.81 940.52 314.39H938.9Q938.85 313.44 938.27 312.92Q937.68 312.41 936.67 312.41Q935.61 312.41 934.98 313.01Q934.35 313.62 934.35 314.73V317.45Q934.35 318.57 934.98 319.18Q935.61 319.79 936.67 319.79Q937.68 319.79 938.27 319.27Q938.85 318.75 938.9 317.81H940.52Q940.47 319.39 939.43 320.31Q938.38 321.23 936.67 321.23ZM947.4 321.19Q946.21 321.19 945.35 320.74Q944.48 320.29 944.01 319.44Q943.53 318.58 943.53 317.41V314.79Q943.53 313.6 944.01 312.75Q944.48 311.91 945.35 311.46Q946.21 311.01 947.4 311.01Q948.59 311.01 949.45 311.46Q950.32 311.91 950.79 312.75Q951.27 313.6 951.27 314.77V317.41Q951.27 318.58 950.79 319.44Q950.32 320.29 949.45 320.74Q948.59 321.19 947.4 321.19ZM947.4 319.75Q948.46 319.75 949.06 319.16Q949.65 318.57 949.65 317.41V314.79Q949.65 313.63 949.06 313.04Q948.46 312.45 947.4 312.45Q946.36 312.45 945.75 313.04Q945.15 313.63 945.15 314.79V317.41Q945.15 318.57 945.75 319.16Q946.36 319.75 947.4 319.75ZM953.99 321.05H955.48V313.49Q955.48 312.88 955.73 312.54Q955.99 312.21 956.49 312.21Q956.99 312.21 957.27 312.54Q957.55 312.88 957.55 313.51V321.05H958.85V313.49Q958.85 312.88 959.13 312.54Q959.41 312.21 959.89 312.21Q960.4 312.21 960.66 312.55Q960.92 312.9 960.92 313.51V321.05H962.41V313.53Q962.41 312.37 961.9 311.67Q961.39 310.97 960.45 310.97Q959.69 310.97 959.24 311.46Q958.9 311.82 958.81 312.34H958.74Q958.63 311.89 958.4 311.58Q957.95 310.97 957.12 310.97Q956.36 310.97 955.93 311.46Q955.61 311.82 955.52 312.34H955.41V311.15L953.99 311.65ZM964.95 323.03 971.34 306.11H973.05L966.66 323.03ZM976.2 321.05H983.24L983.76 319.57H977.8V314.91H982.63L983.13 313.45H977.8V309.39H983.24L983.76 307.91H976.2ZM990.29 321.19Q989.29 321.19 988.54 320.88Q987.79 320.56 987.35 319.99Q986.91 319.41 986.82 318.62H988.44Q988.55 319.14 989.03 319.45Q989.5 319.75 990.29 319.75H991.05Q992 319.75 992.47 319.37Q992.94 318.98 992.94 318.33Q992.94 317.7 992.52 317.33Q992.09 316.96 991.27 316.84L989.93 316.62Q988.48 316.37 987.77 315.71Q987.05 315.06 987.05 313.8Q987.05 312.46 987.9 311.74Q988.75 311.01 990.44 311.01H991.12Q992.54 311.01 993.41 311.67Q994.27 312.34 994.45 313.47H992.83Q992.72 313 992.29 312.73Q991.86 312.45 991.12 312.45H990.44Q989.52 312.45 989.1 312.79Q988.67 313.13 988.67 313.81Q988.67 314.43 989.03 314.71Q989.39 315 990.17 315.13L991.5 315.34Q993.1 315.6 993.83 316.28Q994.56 316.96 994.56 318.26Q994.56 319.63 993.69 320.41Q992.81 321.19 991.05 321.19ZM997.66 324.29 999.28 323.71V321.41L999.24 319.16H999.29Q999.4 320.01 1000.03 320.56Q1000.79 321.23 1001.99 321.23Q1003 321.23 1003.73 320.78Q1004.46 320.33 1004.87 319.5Q1005.27 318.67 1005.27 317.54V314.64Q1005.27 312.93 1004.38 311.95Q1003.49 310.97 1001.99 310.97Q1000.77 310.97 1000.03 311.62Q999.4 312.18 999.29 313.04H999.28V311.15H997.66ZM1001.45 319.83Q1000.46 319.83 999.87 319.2Q999.28 318.57 999.28 317.45V314.75Q999.28 313.63 999.87 313Q1000.46 312.37 1001.45 312.37Q1002.48 312.37 1003.07 312.99Q1003.65 313.6 1003.65 314.75V317.45Q1003.65 318.6 1003.07 319.21Q1002.48 319.83 1001.45 319.83ZM1012.2 321.23Q1011.03 321.23 1010.16 320.76Q1009.28 320.29 1008.81 319.44Q1008.33 318.58 1008.33 317.45V314.75Q1008.33 313.6 1008.81 312.75Q1009.28 311.91 1010.16 311.44Q1011.03 310.97 1012.2 310.97Q1013.37 310.97 1014.24 311.44Q1015.12 311.91 1015.59 312.75Q1016.07 313.6 1016.07 314.75V316.5H1009.91V317.45Q1009.91 318.62 1010.51 319.24Q1011.1 319.86 1012.2 319.86Q1013.14 319.86 1013.71 319.53Q1014.29 319.2 1014.41 318.53H1016.03Q1015.87 319.77 1014.82 320.5Q1013.77 321.23 1012.2 321.23ZM1014.49 315.42V314.75Q1014.49 313.58 1013.9 312.95Q1013.32 312.32 1012.2 312.32Q1011.1 312.32 1010.51 312.95Q1009.91 313.58 1009.91 314.75V315.27H1014.61ZM1019.6 321.05H1021.22V314.75Q1021.22 313.6 1021.8 312.97Q1022.39 312.34 1023.41 312.34Q1024.46 312.34 1025.03 312.96Q1025.59 313.58 1025.59 314.75V315.2H1027.21V314.61Q1027.21 312.93 1026.28 311.95Q1025.36 310.97 1023.79 310.97Q1022.42 310.97 1021.74 311.78Q1021.36 312.23 1021.18 312.91V311.15L1019.6 311.71ZM1033.8 321.19Q1032.61 321.19 1031.75 320.74Q1030.88 320.29 1030.41 319.44Q1029.93 318.58 1029.93 317.41V314.79Q1029.93 313.6 1030.41 312.75Q1030.88 311.91 1031.75 311.46Q1032.61 311.01 1033.8 311.01Q1034.99 311.01 1035.85 311.46Q1036.72 311.91 1037.19 312.75Q1037.67 313.6 1037.67 314.77V317.41Q1037.67 318.58 1037.19 319.44Q1036.72 320.29 1035.85 320.74Q1034.99 321.19 1033.8 321.19ZM1033.8 319.75Q1034.86 319.75 1035.46 319.16Q1036.05 318.57 1036.05 317.41V314.79Q1036.05 313.63 1035.46 313.04Q1034.86 312.45 1033.8 312.45Q1032.76 312.45 1032.15 313.04Q1031.55 313.63 1031.55 314.79V317.41Q1031.55 318.57 1032.15 319.16Q1032.76 319.75 1033.8 319.75ZM1044.29 321.19Q1043.29 321.19 1042.54 320.88Q1041.79 320.56 1041.35 319.99Q1040.91 319.41 1040.82 318.62H1042.44Q1042.55 319.14 1043.03 319.45Q1043.5 319.75 1044.29 319.75H1045.05Q1046 319.75 1046.47 319.37Q1046.94 318.98 1046.94 318.33Q1046.94 317.7 1046.52 317.33Q1046.09 316.96 1045.27 316.84L1043.93 316.62Q1042.48 316.37 1041.77 315.71Q1041.05 315.06 1041.05 313.8Q1041.05 312.46 1041.9 311.74Q1042.75 311.01 1044.44 311.01H1045.12Q1046.54 311.01 1047.41 311.67Q1048.27 312.34 1048.45 313.47H1046.83Q1046.72 313 1046.29 312.73Q1045.86 312.45 1045.12 312.45H1044.44Q1043.52 312.45 1043.1 312.79Q1042.67 313.13 1042.67 313.81Q1042.67 314.43 1043.03 314.71Q1043.39 315 1044.17 315.13L1045.5 315.34Q1047.1 315.6 1047.83 316.28Q1048.56 316.96 1048.56 318.26Q1048.56 319.63 1047.69 320.41Q1046.81 321.19 1045.05 321.19ZM1054.54 321.23Q1052.97 321.23 1052.07 320.43Q1051.17 319.63 1051.17 318.26Q1051.17 316.87 1052.07 316.08Q1052.97 315.29 1054.5 315.29H1057.56V314.3Q1057.56 313.38 1057.01 312.89Q1056.46 312.39 1055.45 312.39Q1054.57 312.39 1053.98 312.76Q1053.38 313.13 1053.29 313.76H1051.67Q1051.84 312.48 1052.88 311.73Q1053.92 310.97 1055.49 310.97Q1057.2 310.97 1058.19 311.85Q1059.18 312.73 1059.18 314.25V321.05H1057.6V319.16H1057.33L1057.6 318.89Q1057.6 319.97 1056.76 320.6Q1055.92 321.23 1054.54 321.23ZM1054.93 319.95Q1056.08 319.95 1056.82 319.38Q1057.56 318.8 1057.56 317.9V316.5H1054.54Q1053.73 316.5 1053.26 316.95Q1052.79 317.4 1052.79 318.17Q1052.79 319 1053.36 319.48Q1053.92 319.95 1054.93 319.95ZM1065.44 313.31 1065.23 310.61V307.91H1066.97V310.61L1066.78 313.31Z"/><path fill="#ECEEE8" d="M1074.57 323.93 1076.01 318.33H1078.35L1076.01 323.93Z"/></g><path fill="#858C80" d="M730.05 356.29Q729.15 356.29 728.48 355.93Q727.81 355.57 727.44 354.91Q727.08 354.26 727.08 353.38V349.06Q727.08 348.17 727.44 347.52Q727.81 346.88 728.48 346.52Q729.15 346.16 730.05 346.16Q730.97 346.16 731.63 346.52Q732.29 346.88 732.66 347.52Q733.02 348.17 733.02 349.06V353.38Q733.02 354.26 732.66 354.91Q732.29 355.57 731.62 355.93Q730.95 356.29 730.05 356.29ZM730.05 355.25Q730.86 355.25 731.35 354.73Q731.85 354.21 731.85 353.38V349.06Q731.85 348.24 731.35 347.72Q730.86 347.2 730.05 347.2Q729.24 347.2 728.75 347.72Q728.25 348.24 728.25 349.06V353.38Q728.25 354.21 728.75 354.73Q729.24 355.25 730.05 355.25ZM730.05 352.02Q729.69 352.02 729.46 351.79Q729.24 351.56 729.24 351.18Q729.24 350.82 729.46 350.59Q729.69 350.37 730.05 350.37Q730.41 350.37 730.64 350.59Q730.86 350.82 730.86 351.18Q730.86 351.56 730.64 351.79Q730.41 352.02 730.05 352.02ZM738.12 356.29Q739.51 356.29 740.28 355.52Q741.05 354.76 741.05 353.45V352.49Q741.05 351.16 740.38 350.41Q739.72 349.66 738.51 349.67Q737.66 349.67 737.16 350.03Q736.8 350.29 736.69 350.68H736.65L736.69 347.4H740.31L740.7 346.3H735.52L735.45 351.75H736.67Q736.84 351.29 737.23 351.01Q737.62 350.74 738.15 350.74Q738.99 350.74 739.41 351.2Q739.84 351.65 739.84 352.49V353.45Q739.84 354.29 739.41 354.75Q738.99 355.21 738.14 355.21Q737.39 355.21 736.96 354.89Q736.53 354.57 736.46 353.99H735.25Q735.38 355.04 736.15 355.66Q736.92 356.29 738.12 356.29Z"/><clipPath id="r4"><rect class="r4" x="508.0" y="335.5" width="261.2" height="28.8"/></clipPath><g clip-path="url(#r4)"><path fill="#ECEEE8" d="M795.89 356.29Q794.89 356.29 794.14 355.98Q793.39 355.66 792.95 355.09Q792.51 354.51 792.42 353.72H794.04Q794.15 354.24 794.62 354.55Q795.1 354.85 795.89 354.85H796.65Q797.6 354.85 798.07 354.47Q798.54 354.08 798.54 353.43Q798.54 352.8 798.12 352.43Q797.69 352.06 796.87 351.94L795.53 351.72Q794.08 351.47 793.37 350.81Q792.65 350.16 792.65 348.9Q792.65 347.56 793.5 346.84Q794.35 346.11 796.04 346.11H796.72Q798.14 346.11 799.01 346.77Q799.87 347.44 800.05 348.57H798.43Q798.32 348.1 797.89 347.83Q797.46 347.55 796.72 347.55H796.04Q795.12 347.55 794.7 347.89Q794.27 348.23 794.27 348.91Q794.27 349.53 794.63 349.81Q794.99 350.1 795.77 350.23L797.1 350.44Q798.7 350.7 799.43 351.38Q800.16 352.06 800.16 353.36Q800.16 354.73 799.29 355.51Q798.41 356.29 796.65 356.29ZM808.08 356.15H810.26L810.78 354.67H808.08Q807 354.67 807 353.54V347.73H810.44L810.96 346.25H807V343.46L805.38 344.04V346.25H803.11L802.59 347.73H805.38V353.54Q805.38 354.78 806.09 355.47Q806.8 356.15 808.08 356.15ZM816.94 356.33Q815.37 356.33 814.47 355.53Q813.57 354.73 813.57 353.36Q813.57 351.97 814.47 351.18Q815.37 350.39 816.9 350.39H819.96V349.4Q819.96 348.48 819.41 347.99Q818.86 347.49 817.85 347.49Q816.97 347.49 816.38 347.86Q815.78 348.23 815.69 348.86H814.07Q814.24 347.58 815.28 346.83Q816.32 346.07 817.89 346.07Q819.6 346.07 820.59 346.95Q821.58 347.83 821.58 349.35V356.15H820V354.26H819.73L820 353.99Q820 355.07 819.16 355.7Q818.32 356.33 816.94 356.33ZM817.33 355.05Q818.48 355.05 819.22 354.48Q819.96 353.9 819.96 353V351.6H816.94Q816.13 351.6 815.66 352.05Q815.19 352.5 815.19 353.27Q815.19 354.1 815.76 354.58Q816.32 355.05 817.33 355.05ZM827.5 356.15H829.7L833.01 346.25H831.37L829.23 352.91Q829.05 353.5 828.89 354.05Q828.73 354.6 828.64 354.91Q828.56 354.6 828.4 354.05Q828.24 353.5 828.04 352.91L825.85 346.25L824.37 346.77ZM839.4 348.77Q838.73 348.77 838.32 348.4Q837.91 348.03 837.91 347.42Q837.91 346.81 838.32 346.44Q838.73 346.07 839.4 346.07Q840.08 346.07 840.49 346.44Q840.89 346.81 840.89 347.42Q840.89 348.03 840.49 348.4Q840.08 348.77 839.4 348.77ZM839.4 356.33Q838.73 356.33 838.32 355.96Q837.91 355.59 837.91 354.98Q837.91 354.37 838.32 354Q838.73 353.63 839.4 353.63Q840.08 353.63 840.49 354Q840.89 354.37 840.89 354.98Q840.89 355.59 840.49 355.96Q840.08 356.33 839.4 356.33Z"/><path fill="#A2A99D" d="M860.24 348.41 860.03 345.71V343.01H861.77V345.71L861.58 348.41ZM872.38 356.33Q873.87 356.33 874.77 355.34Q875.67 354.35 875.67 352.66V349.76Q875.67 348.05 874.77 347.06Q873.87 346.07 872.38 346.07Q871.17 346.07 870.43 346.74Q869.8 347.29 869.69 348.14H869.64L869.68 345.89V343.01L868.06 343.59V356.15H869.68V354.26H869.69Q869.8 355.12 870.41 355.66Q871.15 356.33 872.38 356.33ZM871.84 354.93Q870.85 354.93 870.26 354.3Q869.68 353.67 869.68 352.55V349.85Q869.68 348.73 870.26 348.1Q870.85 347.47 871.84 347.47Q872.86 347.47 873.46 348.09Q874.05 348.7 874.05 349.85V352.55Q874.05 353.7 873.46 354.31Q872.86 354.93 871.84 354.93ZM882.6 356.33Q881.43 356.33 880.56 355.86Q879.68 355.39 879.21 354.54Q878.73 353.68 878.73 352.55V349.85Q878.73 348.7 879.21 347.85Q879.68 347.01 880.56 346.54Q881.43 346.07 882.6 346.07Q883.77 346.07 884.64 346.54Q885.52 347.01 885.99 347.85Q886.47 348.7 886.47 349.85V351.6H880.31V352.55Q880.31 353.72 880.91 354.34Q881.5 354.96 882.6 354.96Q883.54 354.96 884.11 354.63Q884.69 354.3 884.81 353.63H886.43Q886.27 354.87 885.22 355.6Q884.17 356.33 882.6 356.33ZM884.89 350.52V349.85Q884.89 348.68 884.3 348.05Q883.72 347.42 882.6 347.42Q881.5 347.42 880.91 348.05Q880.31 348.68 880.31 349.85V350.37H885.01ZM890 356.15H891.62V349.85Q891.62 348.7 892.2 348.07Q892.79 347.44 893.81 347.44Q894.86 347.44 895.42 348.06Q895.99 348.68 895.99 349.85V350.3H897.61V349.71Q897.61 348.03 896.68 347.05Q895.76 346.07 894.19 346.07Q892.82 346.07 892.14 346.88Q891.76 347.33 891.58 348.01V346.25L890 346.81ZM904.18 356.33Q905.89 356.33 906.94 355.31Q907.98 354.3 907.98 352.55V346.25H906.36V352.55Q906.36 353.67 905.78 354.29Q905.19 354.91 904.18 354.91Q903.19 354.91 902.62 354.29Q902.04 353.67 902.04 352.55V346.25L900.42 346.81V352.55Q900.42 354.3 901.45 355.31Q902.47 356.33 904.18 356.33ZM922.06 359.39 923.68 358.81V356.51L923.64 354.26H923.69Q923.8 355.11 924.43 355.66Q925.19 356.33 926.39 356.33Q927.4 356.33 928.13 355.88Q928.86 355.43 929.26 354.6Q929.67 353.77 929.67 352.64V349.74Q929.67 348.03 928.78 347.05Q927.89 346.07 926.39 346.07Q925.17 346.07 924.43 346.72Q923.8 347.28 923.69 348.14H923.68V346.25H922.06ZM925.85 354.93Q924.86 354.93 924.27 354.3Q923.68 353.67 923.68 352.55V349.85Q923.68 348.73 924.27 348.1Q924.86 347.47 925.85 347.47Q926.88 347.47 927.46 348.09Q928.05 348.7 928.05 349.85V352.55Q928.05 353.7 927.46 354.31Q926.88 354.93 925.85 354.93ZM933.2 356.15H934.82V349.85Q934.82 348.7 935.4 348.07Q935.99 347.44 937.01 347.44Q938.06 347.44 938.62 348.06Q939.19 348.68 939.19 349.85V350.3H940.81V349.71Q940.81 348.03 939.88 347.05Q938.96 346.07 937.39 346.07Q936.02 346.07 935.34 346.88Q934.96 347.33 934.78 348.01V346.25L933.2 346.81ZM947.4 356.29Q946.21 356.29 945.35 355.84Q944.48 355.39 944.01 354.54Q943.53 353.68 943.53 352.51V349.89Q943.53 348.7 944.01 347.85Q944.48 347.01 945.35 346.56Q946.21 346.11 947.4 346.11Q948.59 346.11 949.45 346.56Q950.32 347.01 950.79 347.85Q951.27 348.7 951.27 349.87V352.51Q951.27 353.68 950.79 354.54Q950.32 355.39 949.45 355.84Q948.59 356.29 947.4 356.29ZM947.4 354.85Q948.46 354.85 949.06 354.26Q949.65 353.67 949.65 352.51V349.89Q949.65 348.73 949.06 348.14Q948.46 347.55 947.4 347.55Q946.36 347.55 945.75 348.14Q945.15 348.73 945.15 349.89V352.51Q945.15 353.67 945.75 354.26Q946.36 354.85 947.4 354.85ZM954.33 359.39H956.65Q958.47 359.39 959.55 358.36Q960.63 357.34 960.63 355.59V346.25H955.39L954.87 347.73H959.01V355.59Q959.01 356.69 958.39 357.29Q957.77 357.9 956.65 357.9H954.85ZM959.73 344.47Q959.14 344.47 958.79 344.16Q958.45 343.86 958.45 343.33Q958.45 342.79 958.79 342.48Q959.14 342.16 959.73 342.16Q960.32 342.16 960.67 342.48Q961.01 342.79 961.01 343.33Q961.01 343.86 960.67 344.16Q960.32 344.47 959.73 344.47ZM969 356.33Q967.83 356.33 966.96 355.86Q966.08 355.39 965.61 354.54Q965.13 353.68 965.13 352.55V349.85Q965.13 348.7 965.61 347.85Q966.08 347.01 966.96 346.54Q967.83 346.07 969 346.07Q970.17 346.07 971.04 346.54Q971.92 347.01 972.39 347.85Q972.87 348.7 972.87 349.85V351.6H966.71V352.55Q966.71 353.72 967.31 354.34Q967.9 354.96 969 354.96Q969.94 354.96 970.51 354.63Q971.09 354.3 971.21 353.63H972.83Q972.67 354.87 971.62 355.6Q970.57 356.33 969 356.33ZM971.29 350.52V349.85Q971.29 348.68 970.7 348.05Q970.12 347.42 969 347.42Q967.9 347.42 967.31 348.05Q966.71 348.68 966.71 349.85V350.37H971.41ZM976.11 356.15H977.73V351.74H979.66L982.54 356.15H984.43L981.04 350.97L984.37 346.25H982.52L979.64 350.34H977.73V343.01L976.11 343.59ZM991.68 356.15H993.86L994.38 354.67H991.68Q990.6 354.67 990.6 353.54V347.73H994.04L994.56 346.25H990.6V343.46L988.98 344.04V346.25H986.71L986.19 347.73H988.98V353.54Q988.98 354.78 989.69 355.47Q990.4 356.15 991.68 356.15ZM999.2 359.39 1001.18 358.69 1005.81 346.25H1004.06L1001.9 352.37Q1001.8 352.68 1001.69 353.1Q1001.58 353.52 1001.51 353.81Q1001.44 353.52 1001.33 353.1Q1001.22 352.68 1001.09 352.37L998.79 346.25H996.99L1000.66 355.54ZM1011.44 348.41 1011.23 345.71V343.01H1012.97V345.71L1012.78 348.41Z"/><path fill="#ECEEE8" d="M1020.57 359.03 1022.01 353.43H1024.35L1022.01 359.03Z"/></g><path fill="#858C80" d="M730.05 391.39Q729.15 391.39 728.48 391.03Q727.81 390.67 727.44 390.01Q727.08 389.36 727.08 388.48V384.16Q727.08 383.27 727.44 382.62Q727.81 381.98 728.48 381.62Q729.15 381.26 730.05 381.26Q730.97 381.26 731.63 381.62Q732.29 381.98 732.66 382.62Q733.02 383.27 733.02 384.16V388.48Q733.02 389.36 732.66 390.01Q732.29 390.67 731.62 391.03Q730.95 391.39 730.05 391.39ZM730.05 390.35Q730.86 390.35 731.35 389.83Q731.85 389.31 731.85 388.48V384.16Q731.85 383.34 731.35 382.82Q730.86 382.3 730.05 382.3Q729.24 382.3 728.75 382.82Q728.25 383.34 728.25 384.16V388.48Q728.25 389.31 728.75 389.83Q729.24 390.35 730.05 390.35ZM730.05 387.12Q729.69 387.12 729.46 386.89Q729.24 386.66 729.24 386.28Q729.24 385.92 729.46 385.69Q729.69 385.47 730.05 385.47Q730.41 385.47 730.64 385.69Q730.86 385.92 730.86 386.28Q730.86 386.66 730.64 386.89Q730.41 387.12 730.05 387.12ZM738.16 391.39Q737.22 391.39 736.51 390.99Q735.8 390.59 735.41 389.87Q735.02 389.16 735.02 388.21Q735.02 387.47 735.23 386.75Q735.44 386.04 735.86 385.38L738.33 381.4H739.68L736.88 385.88L736.94 385.92Q737.19 385.54 737.64 385.34Q738.08 385.13 738.64 385.13Q739.45 385.13 740.04 385.51Q740.63 385.89 740.96 386.58Q741.28 387.27 741.28 388.21Q741.28 389.16 740.89 389.87Q740.5 390.59 739.8 390.99Q739.11 391.39 738.16 391.39ZM738.15 390.31Q739.01 390.31 739.54 389.73Q740.07 389.16 740.07 388.21Q740.07 387.27 739.54 386.69Q739.01 386.12 738.15 386.12Q737.29 386.12 736.76 386.69Q736.23 387.27 736.23 388.21Q736.23 389.16 736.76 389.73Q737.29 390.31 738.15 390.31Z"/><clipPath id="r5"><rect class="r5" x="745.6" y="370.6" width="23.6" height="28.8"/></clipPath><g clip-path="url(#r5)"><path fill="#ECEEE8" d="M770.73 393.23V391.79H771.54Q772.39 391.79 772.84 391.4Q773.29 391.02 773.25 390.24L773.07 387.29Q773 386.12 773.64 385.42Q774.28 384.72 775.41 384.72V384.81Q774.26 384.81 773.63 384.11Q773 383.42 773.07 382.25L773.25 379.3Q773.29 378.52 772.84 378.14Q772.39 377.75 771.54 377.75H770.73V376.31H771.54Q772.6 376.31 773.37 376.66Q774.13 377.01 774.53 377.68Q774.92 378.34 774.87 379.3L774.69 382.25Q774.64 383.2 774.98 383.63Q775.32 384.05 776.49 384.05H778.47V385.49H776.49Q775.34 385.49 774.99 385.91Q774.64 386.34 774.69 387.29L774.87 390.24Q774.92 391.18 774.53 391.85Q774.13 392.53 773.37 392.88Q772.6 393.23 771.54 393.23ZM783.06 394.13 784.5 388.53H786.84L784.5 394.13ZM785.22 383.87Q784.63 383.87 784.25 383.49Q783.87 383.11 783.87 382.52Q783.87 381.94 784.26 381.56Q784.64 381.17 785.22 381.17H785.58Q786.16 381.17 786.54 381.56Q786.93 381.94 786.93 382.52Q786.93 383.11 786.55 383.49Q786.17 383.87 785.58 383.87Z"/></g><rect class="kurzor" x="794.8" y="375.1" width="10.1" height="20.2" fill="#B5DC4B"/></svg>
